<svg xmlns="http://www.w3.org/2000/svg" version="1.1" xmlns:xlink="http://www.w3.org/1999/xlink" xmlns:svgjs="http://svgjs.dev/svgjs" width="1000" height="1000" viewBox="0 0 1000 1000"><rect width="1000" height="1000" fill="#ffffff"></rect><g transform="matrix(0.7,0,0,0.7,147.13079537949392,258.69309505362173)"><svg viewBox="0 0 293 202" data-background-color="#ffffff" preserveAspectRatio="xMidYMid meet" height="689" width="1000" xmlns="http://www.w3.org/2000/svg" xmlns:xlink="http://www.w3.org/1999/xlink"><g id="tight-bounds" transform="matrix(1,0,0,1,1.3162943202275699,0.06571594270872083)"><svg viewBox="0 0 291.8941325888189 200" height="200" width="291.8941325888189"><g><svg viewBox="0 0 293.35360325176293 200.99999999999997" height="200" width="291.8941325888189"><g><rect width="3.3552298815609936" height="200.99999999999997" x="84.18057258788592" y="0" fill="#000000" opacity="1" stroke-width="0" stroke="transparent" fill-opacity="1" class="rect-yj-0" data-fill-palette-color="primary" rx="1%" id="yj-0" data-palette-color="#4790fc"></rect></g><g transform="matrix(1,0,0,1,96.319126766727,0.4999999999999858)"><svg viewBox="0 0 197.03447648503592 200" height="200" width="197.03447648503592"><g><svg viewBox="0 0 197.03447648503592 200" height="200" width="197.03447648503592"><g><svg viewBox="0 0 197.03447648503592 200" height="200" width="197.03447648503592"><g transform="matrix(1,0,0,1,0,0)"><svg width="197.03447648503592" viewBox="1.0500000000000003 -36.230000000000004 211.51999999999998 209.68" height="200" data-palette-color="#4790fc"><svg></svg><svg></svg><svg></svg><svg></svg><svg></svg><g class="undefined-text-0" data-fill-palette-color="primary" id="text-0"><path d="M1.64-1.78v0c0.207-0.427 0.423-0.903 0.65-1.43 0.233-0.527 0.447-1.1 0.64-1.72v0l0.66-1.61c-0.293-0.44-0.59-0.917-0.89-1.43-0.3-0.513-0.573-1.04-0.82-1.58-0.247-0.533-0.447-1.07-0.6-1.61-0.153-0.533-0.23-1.053-0.23-1.56v0c0-0.033 0.127-0.063 0.38-0.09 0.253-0.02 0.57-0.04 0.95-0.06 0.38-0.013 0.797-0.023 1.25-0.03 0.447-0.013 0.86-0.023 1.24-0.03 0.38-0.007 0.697-0.013 0.95-0.02 0.253-0.007 0.38-0.01 0.38-0.01v0c0.373-0.98 0.74-1.91 1.1-2.79 0.36-0.88 0.717-1.767 1.07-2.66 0.36-0.893 0.72-1.807 1.08-2.74 0.36-0.94 0.717-1.947 1.07-3.02v0c0.687-2.02 1.353-3.793 2-5.32 0.653-1.533 1.267-2.957 1.84-4.27v0c0.06-0.167 0.17-0.32 0.33-0.46 0.153-0.133 0.32-0.25 0.5-0.35 0.173-0.1 0.347-0.18 0.52-0.24 0.173-0.067 0.307-0.117 0.4-0.15v0c0.067-0.02 0.317-0.093 0.75-0.22 0.427-0.133 0.917-0.273 1.47-0.42 0.56-0.147 1.11-0.277 1.65-0.39 0.547-0.113 0.983-0.17 1.31-0.17v0h0.44c0.26 0 0.507 0.063 0.74 0.19 0.24 0.12 0.4 0.36 0.48 0.72v0c0.78 2 1.613 4.183 2.5 6.55 0.887 2.367 1.753 4.977 2.6 7.83v0c0.46 1.527 0.907 2.973 1.34 4.34 0.44 1.367 0.88 2.703 1.32 4.01 0.44 1.3 0.883 2.6 1.33 3.9 0.447 1.3 0.907 2.643 1.38 4.03v0c0.147 0.587 0.297 1.05 0.45 1.39 0.16 0.34 0.303 0.61 0.43 0.81 0.133 0.193 0.24 0.333 0.32 0.42 0.08 0.093 0.12 0.19 0.12 0.29v0c0 0.093-0.153 0.19-0.46 0.29v0l-5.25 1.71c-0.393 0.147-0.793 0.293-1.2 0.44-0.407 0.147-0.79 0.277-1.15 0.39-0.353 0.113-0.667 0.207-0.94 0.28-0.267 0.073-0.457 0.11-0.57 0.11v0h-0.15c-0.227 0-0.387-0.07-0.48-0.21-0.1-0.14-0.167-0.273-0.2-0.4v0c-0.16-0.54-0.323-1.023-0.49-1.45-0.16-0.433-0.317-0.867-0.47-1.3-0.16-0.433-0.317-0.893-0.47-1.38-0.153-0.487-0.303-1.063-0.45-1.73v0c-0.033-0.08-0.123-0.15-0.27-0.21-0.147-0.053-0.32-0.097-0.52-0.13-0.207-0.033-0.423-0.053-0.65-0.06-0.227-0.013-0.437-0.02-0.63-0.02v0c-0.62 0-1.123 0.007-1.51 0.02-0.38 0.007-0.717 0.013-1.01 0.02-0.293 0.007-0.573 0.013-0.84 0.02-0.267 0.013-0.597 0.02-0.99 0.02v0c-0.473 0-0.957-0.007-1.45-0.02-0.5-0.007-0.953-0.017-1.36-0.03v0l-1.39-0.05c-0.42 1.173-0.843 2.27-1.27 3.29-0.42 1.027-0.877 2.087-1.37 3.18v0c-0.027 0.127-0.103 0.233-0.23 0.32-0.12 0.08-0.247 0.12-0.38 0.12v0c-0.093 0-0.15-0.01-0.17-0.03v0c-1.58-0.567-2.907-1.127-3.98-1.68-1.073-0.553-2.007-1.09-2.8-1.61zM18.09-23.73v0c-0.393 1.447-0.78 2.76-1.16 3.94-0.38 1.18-0.73 2.227-1.05 3.14-0.313 0.913-0.587 1.683-0.82 2.31-0.227 0.627-0.387 1.11-0.48 1.45v0 0.22c0 0.1-0.01 0.163-0.03 0.19v0h5.86c-0.18-0.793-0.37-1.597-0.57-2.41-0.207-0.813-0.407-1.67-0.6-2.57-0.193-0.893-0.39-1.853-0.59-2.88-0.193-1.027-0.38-2.157-0.56-3.39zM60.69-20.07v0c-0.06 0.247-0.18 0.597-0.36 1.05-0.18 0.46-0.383 0.977-0.61 1.55-0.227 0.58-0.48 1.19-0.76 1.83-0.28 0.647-0.55 1.277-0.81 1.89v0c-0.113 0.28-0.247 0.487-0.4 0.62-0.153 0.127-0.467 0.197-0.94 0.21v0l-7.13 0.13-0.88 10.84c-0.013 0.147-0.053 0.287-0.12 0.42-0.067 0.14-0.163 0.25-0.29 0.33v0c-0.047 0.033-0.24 0.127-0.58 0.28-0.333 0.16-0.75 0.343-1.25 0.55-0.507 0.213-1.06 0.443-1.66 0.69-0.607 0.24-1.2 0.463-1.78 0.67-0.587 0.2-1.127 0.37-1.62 0.51-0.487 0.14-0.867 0.21-1.14 0.21v0c-0.327 0-0.623-0.06-0.89-0.18-0.273-0.127-0.41-0.377-0.41-0.75v0c-0.013-0.813 0.007-1.713 0.06-2.7 0.06-0.98 0.13-1.98 0.21-3 0.08-1.02 0.17-2.02 0.27-3 0.1-0.987 0.18-1.887 0.24-2.7v0l0.17-2.05c-1.367 0-2.343-0.037-2.93-0.11-0.58-0.073-0.87-0.263-0.87-0.57v0c0-0.213 0.12-0.49 0.36-0.83v0c0.34-0.473 0.727-1.043 1.16-1.71 0.433-0.667 0.85-1.32 1.25-1.96 0.4-0.633 0.75-1.193 1.05-1.68 0.3-0.487 0.49-0.787 0.57-0.9v0l0.46-6.72c-0.307 0-0.573 0.003-0.8 0.01-0.227 0.013-0.433 0.023-0.62 0.03-0.187 0.007-0.363 0.013-0.53 0.02-0.16 0.007-0.33 0.01-0.51 0.01v0c-0.78 0-1.337-0.043-1.67-0.13-0.333-0.087-0.5-0.253-0.5-0.5v0c0-0.113 0.097-0.35 0.29-0.71 0.193-0.36 0.433-0.77 0.72-1.23 0.287-0.467 0.597-0.957 0.93-1.47 0.333-0.507 0.63-0.98 0.89-1.42v0l1.46-2.49 11.11-0.39c1.433-0.053 2.857-0.107 4.27-0.16 1.42-0.06 2.727-0.113 3.92-0.16 1.2-0.053 2.23-0.1 3.09-0.14 0.86-0.04 1.463-0.067 1.81-0.08v0c0.013 0 0.057 0.003 0.13 0.01 0.073 0.007 0.15 0.03 0.23 0.07 0.087 0.04 0.167 0.11 0.24 0.21 0.073 0.1 0.11 0.24 0.11 0.42v0c0 0.093-0.117 0.417-0.35 0.97-0.227 0.553-0.55 1.377-0.97 2.47v0l-1.08 2.83c-0.113 0.28-0.243 0.493-0.39 0.64-0.147 0.14-0.457 0.22-0.93 0.24v0c-0.553 0.013-1.113 0.037-1.68 0.07-0.567 0.033-1.153 0.067-1.76 0.1v0l-7.42 0.37c-0.1 0.633-0.17 1.103-0.21 1.41-0.04 0.313-0.063 0.57-0.07 0.77-0.007 0.207-0.01 0.41-0.01 0.61 0 0.207-0.01 0.53-0.03 0.97v0c-0.013 0.307-0.033 0.567-0.06 0.78-0.027 0.207-0.05 0.413-0.07 0.62-0.027 0.207-0.053 0.423-0.08 0.65-0.02 0.227-0.04 0.51-0.06 0.85v0c1.08-0.033 2.137-0.067 3.17-0.1 1.033-0.027 1.983-0.057 2.85-0.09 0.873-0.033 1.627-0.063 2.26-0.09 0.633-0.027 1.08-0.04 1.34-0.04v0c0.133 0 0.28 0.05 0.44 0.15 0.167 0.1 0.25 0.287 0.25 0.56v0c0 0.133-0.027 0.28-0.08 0.44zM79.64-15.48l-1.2 13.53c-0.013 0.147-0.04 0.287-0.08 0.42-0.04 0.14-0.15 0.25-0.33 0.33v0c-0.067 0.033-0.39 0.153-0.97 0.36-0.573 0.2-1.24 0.437-2 0.71-0.753 0.267-1.503 0.533-2.25 0.8-0.74 0.267-1.303 0.473-1.69 0.62v0c-0.193 0.087-0.433 0.173-0.72 0.26-0.287 0.087-0.567 0.13-0.84 0.13v0c-0.233 0-0.433-0.057-0.6-0.17-0.173-0.113-0.26-0.323-0.26-0.63v0c0-0.72 0.02-1.377 0.06-1.97 0.04-0.593 0.093-1.213 0.16-1.86 0.067-0.653 0.137-1.373 0.21-2.16 0.073-0.793 0.143-1.733 0.21-2.82v0c0.08-1.433 0.167-2.813 0.26-4.14 0.1-1.327 0.2-2.707 0.3-4.14v0l0.34-4.18c0.047-0.68 0.097-1.373 0.15-2.08 0.047-0.713 0.093-1.443 0.14-2.19v0l0.27-2.98c0-0.033-0.05-0.05-0.15-0.05v0c-0.127 0-0.343 0.03-0.65 0.09-0.313 0.06-0.68 0.13-1.1 0.21-0.427 0.08-0.897 0.163-1.41 0.25-0.513 0.093-1.037 0.18-1.57 0.26v0c-0.133 0-0.26-0.03-0.38-0.09-0.12-0.053-0.18-0.12-0.18-0.2v0c0-0.067 0.017-0.117 0.05-0.15v0l3.95-6.91c0.893-0.193 1.857-0.393 2.89-0.6 1.033-0.2 2.147-0.383 3.34-0.55 1.187-0.16 2.447-0.293 3.78-0.4 1.333-0.107 2.75-0.16 4.25-0.16v0c1.693 0.033 3.34 0.2 4.94 0.5 1.607 0.3 3.03 0.807 4.27 1.52 1.247 0.707 2.25 1.667 3.01 2.88 0.753 1.213 1.13 2.747 1.13 4.6v0c0 1.027-0.173 1.97-0.52 2.83-0.353 0.867-0.803 1.643-1.35 2.33-0.54 0.693-1.137 1.303-1.79 1.83-0.653 0.533-1.277 0.987-1.87 1.36-0.593 0.373-1.117 0.67-1.57 0.89-0.46 0.22-0.77 0.363-0.93 0.43v0c0 0.033 0.013 0.073 0.04 0.12 0.02 0.047 0.073 0.14 0.16 0.28 0.08 0.14 0.197 0.337 0.35 0.59 0.153 0.247 0.353 0.59 0.6 1.03v0c0.26 0.393 0.57 0.917 0.93 1.57 0.353 0.647 0.78 1.413 1.28 2.3 0.493 0.887 1.067 1.877 1.72 2.97 0.653 1.093 1.4 2.267 2.24 3.52v0c0.28 0.24 0.6 0.39 0.96 0.45 0.353 0.053 0.687 0.083 1 0.09 0.307 0.013 0.567 0.03 0.78 0.05 0.213 0.027 0.32 0.13 0.32 0.31v0c0 0.127-0.137 0.277-0.41 0.45-0.267 0.173-0.58 0.35-0.94 0.53-0.353 0.173-0.713 0.343-1.08 0.51-0.367 0.16-0.65 0.29-0.85 0.39v0c-0.387 0.193-0.793 0.38-1.22 0.56-0.42 0.18-0.873 0.38-1.36 0.6-0.493 0.22-1.037 0.477-1.63 0.77-0.593 0.293-1.263 0.643-2.01 1.05v0c-0.193 0.113-0.377 0.19-0.55 0.23-0.173 0.04-0.333 0.06-0.48 0.06v0c-0.293 0-0.543-0.07-0.75-0.21-0.213-0.133-0.393-0.3-0.54-0.5-0.147-0.193-0.263-0.393-0.35-0.6-0.093-0.2-0.173-0.367-0.24-0.5v0zM80.91-28.86l-0.98 10.38c0.833 0 1.697-0.213 2.59-0.64 0.893-0.42 1.707-0.963 2.44-1.63 0.733-0.667 1.337-1.423 1.81-2.27 0.473-0.847 0.71-1.703 0.71-2.57v0c0-2.36-1.417-3.54-4.25-3.54v0c-0.54 0-0.99 0.037-1.35 0.11-0.353 0.073-0.677 0.127-0.97 0.16zM101.73 0.78v0l1.22-16.7c0.407-5.6 0.71-9.71 0.91-12.33 0.193-2.62 0.29-3.92 0.29-3.9v0c0.013-0.293 0.03-0.54 0.05-0.74 0.013-0.193 0.047-0.353 0.1-0.48 0.047-0.133 0.11-0.233 0.19-0.3 0.08-0.06 0.203-0.107 0.37-0.14v0l8.45-2.03c0.207-0.067 0.423-0.1 0.65-0.1v0c0.233 0 0.39 0.07 0.47 0.21 0.08 0.14 0.12 0.42 0.12 0.84v0c-0.113 1.013-0.203 1.957-0.27 2.83-0.067 0.88-0.12 1.72-0.16 2.52-0.04 0.8-0.077 1.57-0.11 2.31-0.033 0.74-0.073 1.477-0.12 2.21v0c-0.093 0.793-0.177 1.59-0.25 2.39-0.073 0.793-0.143 1.62-0.21 2.48-0.067 0.853-0.137 1.757-0.21 2.71-0.073 0.947-0.16 1.983-0.26 3.11v0l-1.07 12.87c-0.013 0.14-0.043 0.28-0.09 0.42-0.04 0.14-0.15 0.25-0.33 0.33v0c-0.013 0-0.11 0.033-0.29 0.1-0.18 0.067-0.417 0.153-0.71 0.26-0.293 0.1-0.633 0.21-1.02 0.33-0.393 0.113-0.81 0.217-1.25 0.31v0c-0.733 0.167-1.37 0.33-1.91 0.49-0.547 0.167-1.033 0.317-1.46 0.45-0.42 0.14-0.81 0.25-1.17 0.33-0.353 0.08-0.71 0.12-1.07 0.12v0c-0.247 0-0.45-0.063-0.61-0.19-0.167-0.133-0.25-0.37-0.25-0.71zM117.72-16.5v0c0-1.793 0.217-3.517 0.65-5.17 0.433-1.653 1.047-3.193 1.84-4.62 0.8-1.433 1.767-2.737 2.9-3.91 1.127-1.173 2.39-2.18 3.79-3.02 1.4-0.833 2.92-1.48 4.56-1.94 1.633-0.453 3.353-0.68 5.16-0.68v0c1.433 0 2.69 0.093 3.77 0.28 1.087 0.187 2.033 0.423 2.84 0.71 0.8 0.287 1.473 0.6 2.02 0.94 0.547 0.34 1 0.667 1.36 0.98v0c-0.02 0-0.03 0.057-0.03 0.17v0c0 0.24 0.02 0.687 0.06 1.34 0.04 0.653 0.09 1.377 0.15 2.17 0.06 0.8 0.11 1.61 0.15 2.43 0.04 0.82 0.06 1.533 0.06 2.14v0c0 0.093-0.033 0.203-0.1 0.33-0.067 0.12-0.23 0.18-0.49 0.18v0c-0.147 0-0.327-0.023-0.54-0.07v0c-0.34-0.1-0.77-0.323-1.29-0.67-0.52-0.353-1.127-0.72-1.82-1.1-0.693-0.387-1.467-0.73-2.32-1.03-0.853-0.3-1.783-0.45-2.79-0.45v0c-1.34 0-2.553 0.263-3.64 0.79-1.093 0.533-2.02 1.263-2.78 2.19-0.767 0.927-1.363 2.03-1.79 3.31-0.42 1.273-0.63 2.667-0.63 4.18v0c0 1.34 0.147 2.613 0.44 3.82 0.293 1.213 0.737 2.277 1.33 3.19 0.593 0.913 1.333 1.643 2.22 2.19 0.887 0.54 1.917 0.81 3.09 0.81v0c0.927 0 1.747-0.03 2.46-0.09 0.72-0.067 1.39-0.173 2.01-0.32 0.613-0.147 1.22-0.343 1.82-0.59 0.593-0.24 1.23-0.55 1.91-0.93v0c0.033-0.013 0.117-0.02 0.25-0.02v0c0.113 0 0.19 0.043 0.23 0.13 0.04 0.093 0.06 0.277 0.06 0.55v0 2.93c0 0.54-0.003 1.067-0.01 1.58-0.013 0.513-0.023 0.973-0.03 1.38-0.007 0.407-0.013 0.737-0.02 0.99-0.007 0.247-0.02 0.37-0.04 0.37v0c-0.747 0.473-1.547 0.86-2.4 1.16-0.86 0.307-1.74 0.543-2.64 0.71-0.907 0.173-1.813 0.287-2.72 0.34-0.913 0.06-1.793 0.09-2.64 0.09v0c-2.293 0-4.44-0.437-6.44-1.31-2.007-0.867-3.747-2.083-5.22-3.65-1.473-1.56-2.633-3.43-3.48-5.61-0.847-2.18-1.27-4.58-1.27-7.2zM147.63-1.78v0c0.213-0.427 0.433-0.903 0.66-1.43 0.227-0.527 0.44-1.1 0.64-1.72v0l0.65-1.61c-0.287-0.44-0.583-0.917-0.89-1.43-0.3-0.513-0.57-1.04-0.81-1.58-0.247-0.533-0.447-1.07-0.6-1.61-0.153-0.533-0.23-1.053-0.23-1.56v0c0-0.033 0.123-0.063 0.37-0.09 0.253-0.02 0.573-0.04 0.96-0.06 0.38-0.013 0.793-0.023 1.24-0.03 0.447-0.013 0.863-0.023 1.25-0.03 0.38-0.007 0.697-0.013 0.95-0.02 0.253-0.007 0.38-0.01 0.38-0.01v0c0.373-0.98 0.74-1.91 1.1-2.79 0.353-0.88 0.71-1.767 1.07-2.66 0.36-0.893 0.717-1.807 1.07-2.74 0.36-0.94 0.72-1.947 1.08-3.02v0c0.68-2.02 1.347-3.793 2-5.32 0.653-1.533 1.263-2.957 1.83-4.27v0c0.067-0.167 0.177-0.32 0.33-0.46 0.153-0.133 0.32-0.25 0.5-0.35 0.18-0.1 0.357-0.18 0.53-0.24 0.167-0.067 0.3-0.117 0.4-0.15v0c0.067-0.02 0.313-0.093 0.74-0.22 0.433-0.133 0.927-0.273 1.48-0.42 0.553-0.147 1.103-0.277 1.65-0.39 0.547-0.113 0.983-0.17 1.31-0.17v0h0.43c0.267 0 0.517 0.063 0.75 0.19 0.233 0.12 0.393 0.36 0.48 0.72v0c0.78 2 1.613 4.183 2.5 6.55 0.887 2.367 1.753 4.977 2.6 7.83v0c0.453 1.527 0.9 2.973 1.34 4.34 0.44 1.367 0.88 2.703 1.32 4.01 0.44 1.3 0.883 2.6 1.33 3.9 0.447 1.3 0.907 2.643 1.38 4.03v0c0.147 0.587 0.297 1.05 0.45 1.39 0.153 0.34 0.297 0.61 0.43 0.81 0.127 0.193 0.233 0.333 0.32 0.42 0.08 0.093 0.12 0.19 0.12 0.29v0c0 0.093-0.157 0.19-0.47 0.29v0l-5.25 1.71c-0.387 0.147-0.783 0.293-1.19 0.44-0.407 0.147-0.79 0.277-1.15 0.39-0.36 0.113-0.673 0.207-0.94 0.28-0.267 0.073-0.457 0.11-0.57 0.11v0h-0.15c-0.227 0-0.39-0.07-0.49-0.21-0.093-0.14-0.157-0.273-0.19-0.4v0c-0.167-0.54-0.33-1.023-0.49-1.45-0.167-0.433-0.327-0.867-0.48-1.3-0.153-0.433-0.307-0.893-0.46-1.38-0.153-0.487-0.303-1.063-0.45-1.73v0c-0.033-0.08-0.123-0.15-0.27-0.21-0.147-0.053-0.323-0.097-0.53-0.13-0.2-0.033-0.413-0.053-0.64-0.06-0.233-0.013-0.447-0.02-0.64-0.02v0c-0.62 0-1.12 0.007-1.5 0.02-0.38 0.007-0.717 0.013-1.01 0.02-0.293 0.007-0.577 0.013-0.85 0.02-0.267 0.013-0.593 0.02-0.98 0.02v0c-0.473 0-0.96-0.007-1.46-0.02-0.493-0.007-0.943-0.017-1.35-0.03v0l-1.39-0.05c-0.427 1.173-0.85 2.27-1.27 3.29-0.427 1.027-0.883 2.087-1.37 3.18v0c-0.033 0.127-0.11 0.233-0.23 0.32-0.12 0.08-0.247 0.12-0.38 0.12v0c-0.1 0-0.157-0.01-0.17-0.03v0c-1.58-0.567-2.907-1.127-3.98-1.68-1.073-0.553-2.01-1.09-2.81-1.61zM164.09-23.73v0c-0.393 1.447-0.78 2.76-1.16 3.94-0.387 1.18-0.737 2.227-1.05 3.14-0.32 0.913-0.593 1.683-0.82 2.31-0.227 0.627-0.39 1.11-0.49 1.45v0 0.22c0 0.1-0.007 0.163-0.02 0.19v0h5.86c-0.18-0.793-0.373-1.597-0.58-2.41-0.2-0.813-0.4-1.67-0.6-2.57-0.193-0.893-0.387-1.853-0.58-2.88-0.193-1.027-0.38-2.157-0.56-3.39zM204.03-14.43v-18.28c0.127-0.54 0.24-0.933 0.34-1.18 0.1-0.24 0.31-0.403 0.63-0.49v0l6.33-1.48c0.193-0.067 0.403-0.1 0.63-0.1v0c0.213 0 0.37 0.073 0.47 0.22 0.093 0.147 0.14 0.423 0.14 0.83v0c-0.093 0.387-0.173 0.983-0.24 1.79-0.067 0.807-0.117 1.69-0.15 2.65-0.033 0.96-0.057 1.923-0.07 2.89-0.02 0.973-0.03 1.817-0.03 2.53v0 1.34c0 1.013-0.007 2.113-0.02 3.3-0.013 1.187-0.033 2.39-0.06 3.61-0.027 1.22-0.057 2.427-0.09 3.62-0.027 1.187-0.057 2.3-0.09 3.34v0l-0.15 4.18c-0.013 0.08-0.02 0.153-0.02 0.22 0 0.06 0 0.123 0 0.19v0 0.37c0 0.273 0.003 0.503 0.01 0.69 0.007 0.187 0.01 0.353 0.01 0.5v0c0 0.167-0.013 0.313-0.04 0.44-0.02 0.133-0.08 0.26-0.18 0.38-0.1 0.12-0.233 0.247-0.4 0.38-0.173 0.133-0.407 0.297-0.7 0.49v0c-0.16 0.113-0.427 0.28-0.8 0.5-0.38 0.22-0.797 0.467-1.25 0.74-0.453 0.28-0.927 0.567-1.42 0.86-0.487 0.293-0.933 0.557-1.34 0.79-0.407 0.24-0.737 0.43-0.99 0.57-0.253 0.147-0.38 0.22-0.38 0.22v0l-11.32-17.43-1.03 14.29c-0.013 0.127-0.04 0.263-0.08 0.41-0.047 0.147-0.157 0.26-0.33 0.34v0c-0.147 0.067-0.4 0.17-0.76 0.31-0.36 0.133-0.78 0.29-1.26 0.47-0.48 0.18-0.983 0.363-1.51 0.55-0.533 0.187-1.033 0.36-1.5 0.52-0.473 0.153-0.893 0.277-1.26 0.37-0.367 0.1-0.613 0.15-0.74 0.15v0c-0.247 0-0.453-0.067-0.62-0.2-0.16-0.127-0.24-0.36-0.24-0.7v0c0.16-2.033 0.347-4.253 0.56-6.66 0.213-2.4 0.417-4.86 0.61-7.38 0.2-2.527 0.383-5.047 0.55-7.56 0.173-2.513 0.317-4.9 0.43-7.16v0c0-0.067-0.103-0.283-0.31-0.65-0.2-0.367-0.427-0.767-0.68-1.2-0.253-0.427-0.48-0.833-0.68-1.22-0.207-0.38-0.31-0.62-0.31-0.72v0c0-0.113 0.06-0.217 0.18-0.31 0.127-0.1 0.327-0.233 0.6-0.4v0l6.52-3.68c0.047 0 0.117-0.01 0.21-0.03 0.087-0.013 0.163-0.02 0.23-0.02v0c0.18 0 0.323 0.02 0.43 0.06 0.107 0.04 0.217 0.167 0.33 0.38v0z" fill="#000000" fill-rule="nonzero" stroke="none" stroke-width="1" stroke-linecap="butt" stroke-linejoin="miter" stroke-miterlimit="10" stroke-dasharray="" stroke-dashoffset="0" font-family="none" font-weight="none" font-size="none" text-anchor="none" style="mix-blend-mode: normal" data-fill-palette-color="primary" opacity="1"></path><path transform="translate(0,42.94)" d="M1.64-1.78v0c0.207-0.427 0.423-0.903 0.65-1.43 0.233-0.527 0.447-1.1 0.64-1.72v0l0.66-1.61c-0.293-0.44-0.59-0.917-0.89-1.43-0.3-0.513-0.573-1.04-0.82-1.58-0.247-0.533-0.447-1.07-0.6-1.61-0.153-0.533-0.23-1.053-0.23-1.56v0c0-0.033 0.127-0.063 0.38-0.09 0.253-0.02 0.57-0.04 0.95-0.06 0.38-0.013 0.797-0.023 1.25-0.03 0.447-0.013 0.86-0.023 1.24-0.03 0.38-0.007 0.697-0.013 0.95-0.02 0.253-0.007 0.38-0.01 0.38-0.01v0c0.373-0.98 0.74-1.91 1.1-2.79 0.36-0.88 0.717-1.767 1.07-2.66 0.36-0.893 0.72-1.807 1.08-2.74 0.36-0.94 0.717-1.947 1.07-3.02v0c0.687-2.02 1.353-3.793 2-5.32 0.653-1.533 1.267-2.957 1.84-4.27v0c0.06-0.167 0.17-0.32 0.33-0.46 0.153-0.133 0.32-0.25 0.5-0.35 0.173-0.1 0.347-0.18 0.52-0.24 0.173-0.067 0.307-0.117 0.4-0.15v0c0.067-0.02 0.317-0.093 0.75-0.22 0.427-0.133 0.917-0.273 1.47-0.42 0.56-0.147 1.11-0.277 1.65-0.39 0.547-0.113 0.983-0.17 1.31-0.17v0h0.44c0.26 0 0.507 0.063 0.74 0.19 0.24 0.12 0.4 0.36 0.48 0.72v0c0.78 2 1.613 4.183 2.5 6.55 0.887 2.367 1.753 4.977 2.6 7.83v0c0.46 1.527 0.907 2.973 1.34 4.34 0.44 1.367 0.88 2.703 1.32 4.01 0.44 1.3 0.883 2.6 1.33 3.9 0.447 1.3 0.907 2.643 1.38 4.03v0c0.147 0.587 0.297 1.05 0.45 1.39 0.16 0.34 0.303 0.61 0.43 0.81 0.133 0.193 0.24 0.333 0.32 0.42 0.08 0.093 0.12 0.19 0.12 0.29v0c0 0.093-0.153 0.19-0.46 0.29v0l-5.25 1.71c-0.393 0.147-0.793 0.293-1.2 0.44-0.407 0.147-0.79 0.277-1.15 0.39-0.353 0.113-0.667 0.207-0.94 0.28-0.267 0.073-0.457 0.11-0.57 0.11v0h-0.15c-0.227 0-0.387-0.07-0.48-0.21-0.1-0.14-0.167-0.273-0.2-0.4v0c-0.16-0.54-0.323-1.023-0.49-1.45-0.16-0.433-0.317-0.867-0.47-1.3-0.16-0.433-0.317-0.893-0.47-1.38-0.153-0.487-0.303-1.063-0.45-1.73v0c-0.033-0.08-0.123-0.15-0.27-0.21-0.147-0.053-0.32-0.097-0.52-0.13-0.207-0.033-0.423-0.053-0.65-0.06-0.227-0.013-0.437-0.02-0.63-0.02v0c-0.62 0-1.123 0.007-1.51 0.02-0.38 0.007-0.717 0.013-1.01 0.02-0.293 0.007-0.573 0.013-0.84 0.02-0.267 0.013-0.597 0.02-0.99 0.02v0c-0.473 0-0.957-0.007-1.45-0.02-0.5-0.007-0.953-0.017-1.36-0.03v0l-1.39-0.05c-0.42 1.173-0.843 2.27-1.27 3.29-0.42 1.027-0.877 2.087-1.37 3.18v0c-0.027 0.127-0.103 0.233-0.23 0.32-0.12 0.08-0.247 0.12-0.38 0.12v0c-0.093 0-0.15-0.01-0.17-0.03v0c-1.58-0.567-2.907-1.127-3.98-1.68-1.073-0.553-2.007-1.09-2.8-1.61zM18.09-23.73v0c-0.393 1.447-0.78 2.76-1.16 3.94-0.38 1.18-0.73 2.227-1.05 3.14-0.313 0.913-0.587 1.683-0.82 2.31-0.227 0.627-0.387 1.11-0.48 1.45v0 0.22c0 0.1-0.01 0.163-0.03 0.19v0h5.86c-0.18-0.793-0.37-1.597-0.57-2.41-0.207-0.813-0.407-1.67-0.6-2.57-0.193-0.893-0.39-1.853-0.59-2.88-0.193-1.027-0.38-2.157-0.56-3.39zM58.03-14.43v-18.28c0.133-0.54 0.247-0.933 0.34-1.18 0.1-0.24 0.313-0.403 0.64-0.49v0l6.32-1.48c0.2-0.067 0.413-0.1 0.64-0.1v0c0.207 0 0.36 0.073 0.46 0.22 0.1 0.147 0.15 0.423 0.15 0.83v0c-0.1 0.387-0.183 0.983-0.25 1.79-0.06 0.807-0.107 1.69-0.14 2.65-0.033 0.96-0.06 1.923-0.08 2.89-0.013 0.973-0.02 1.817-0.02 2.53v0 1.34c0 1.013-0.01 2.113-0.03 3.3-0.013 1.187-0.033 2.39-0.06 3.61-0.02 1.22-0.047 2.427-0.08 3.62-0.033 1.187-0.067 2.3-0.1 3.34v0l-0.15 4.18c-0.013 0.08-0.02 0.153-0.02 0.22 0 0.06 0 0.123 0 0.19v0 0.37c0 0.273 0.003 0.503 0.01 0.69 0.007 0.187 0.01 0.353 0.01 0.5v0c0 0.167-0.01 0.313-0.03 0.44-0.027 0.133-0.09 0.26-0.19 0.38-0.093 0.12-0.227 0.247-0.4 0.38-0.173 0.133-0.403 0.297-0.69 0.49v0c-0.167 0.113-0.437 0.28-0.81 0.5-0.373 0.22-0.79 0.467-1.25 0.74-0.453 0.28-0.923 0.567-1.41 0.86-0.487 0.293-0.933 0.557-1.34 0.79-0.407 0.24-0.737 0.43-0.99 0.57-0.253 0.147-0.38 0.22-0.38 0.22v0l-11.33-17.43-1.02 14.29c-0.02 0.127-0.05 0.263-0.09 0.41-0.04 0.147-0.15 0.26-0.33 0.34v0c-0.147 0.067-0.4 0.17-0.76 0.31-0.353 0.133-0.77 0.29-1.25 0.47-0.48 0.18-0.987 0.363-1.52 0.55-0.527 0.187-1.027 0.36-1.5 0.52-0.473 0.153-0.893 0.277-1.26 0.37-0.367 0.1-0.613 0.15-0.74 0.15v0c-0.247 0-0.45-0.067-0.61-0.2-0.167-0.127-0.25-0.36-0.25-0.7v0c0.167-2.033 0.357-4.253 0.57-6.66 0.207-2.4 0.41-4.86 0.61-7.38 0.193-2.527 0.377-5.047 0.55-7.56 0.167-2.513 0.307-4.9 0.42-7.16v0c0-0.067-0.1-0.283-0.3-0.65-0.207-0.367-0.437-0.767-0.69-1.2-0.247-0.427-0.473-0.833-0.68-1.22-0.2-0.38-0.3-0.62-0.3-0.72v0c0-0.113 0.06-0.217 0.18-0.31 0.12-0.1 0.32-0.233 0.6-0.4v0l6.52-3.68c0.047 0 0.113-0.01 0.2-0.03 0.093-0.013 0.17-0.02 0.23-0.02v0c0.18 0 0.323 0.02 0.43 0.06 0.107 0.04 0.217 0.167 0.33 0.38v0zM75.76 1.27h-4.45c-0.18-0.033-0.31-0.123-0.39-0.27-0.08-0.147-0.12-0.31-0.12-0.49v0c0-0.147 0.033-0.277 0.1-0.39v0l3-5.74c0.02-0.06 0.05-0.31 0.09-0.75 0.04-0.44 0.083-0.99 0.13-1.65 0.047-0.66 0.1-1.397 0.16-2.21 0.06-0.813 0.12-1.62 0.18-2.42 0.067-0.793 0.13-1.553 0.19-2.28 0.053-0.727 0.103-1.333 0.15-1.82v0c0.02-0.193 0.047-0.49 0.08-0.89 0.033-0.4 0.067-0.86 0.1-1.38 0.027-0.52 0.067-1.08 0.12-1.68 0.047-0.607 0.093-1.21 0.14-1.81v0l0.35-5.1c-0.44 0.093-0.897 0.193-1.37 0.3-0.473 0.107-0.933 0.2-1.38 0.28-0.447 0.087-0.87 0.157-1.27 0.21-0.4 0.06-0.747 0.09-1.04 0.09v0c-0.18 0-0.313-0.083-0.4-0.25-0.087-0.16-0.13-0.33-0.13-0.51v0c0-0.213 0.047-0.367 0.14-0.46v0l6.2-5.79c0.507-0.453 1.007-0.823 1.5-1.11 0.5-0.287 1.1-0.51 1.8-0.67 0.7-0.167 1.557-0.277 2.57-0.33 1.02-0.06 2.31-0.09 3.87-0.09v0c2.673 0 5.043 0.277 7.11 0.83 2.067 0.553 3.817 1.343 5.25 2.37v0c1.053 0.733 1.997 1.5 2.83 2.3 0.827 0.793 1.527 1.673 2.1 2.64 0.567 0.973 0.997 2.04 1.29 3.2 0.293 1.167 0.44 2.483 0.44 3.95v0c0 2.78-0.413 5.253-1.24 7.42-0.833 2.16-1.967 4.05-3.4 5.67-1.427 1.62-3.097 2.993-5.01 4.12-1.913 1.12-3.957 2.03-6.13 2.73-2.173 0.7-4.42 1.207-6.74 1.52-2.32 0.307-4.593 0.46-6.82 0.46zM85.5-28.13v0l-0.29 2.96c-0.1 1.027-0.203 2.12-0.31 3.28-0.107 1.167-0.21 2.347-0.31 3.54-0.093 1.2-0.19 2.38-0.29 3.54-0.093 1.167-0.183 2.253-0.27 3.26-0.08 1.013-0.153 1.917-0.22 2.71-0.06 0.8-0.117 1.437-0.17 1.91v0l-0.07 0.73c1.967 0 3.63-0.317 4.99-0.95 1.36-0.64 2.463-1.517 3.31-2.63 0.847-1.113 1.46-2.42 1.84-3.92 0.387-1.493 0.58-3.103 0.58-4.83v0c0-1.24-0.173-2.433-0.52-3.58-0.34-1.147-0.833-2.24-1.48-3.28v0c-0.653-1.04-1.453-1.82-2.4-2.34-0.94-0.527-2.007-0.79-3.2-0.79v0c-0.193 0-0.403 0.047-0.63 0.14-0.227 0.087-0.413 0.17-0.56 0.25z" fill="#000000" fill-rule="nonzero" stroke="none" stroke-width="1" stroke-linecap="butt" stroke-linejoin="miter" stroke-miterlimit="10" stroke-dasharray="" stroke-dashoffset="0" font-family="none" font-weight="none" font-size="none" text-anchor="none" style="mix-blend-mode: normal" data-fill-palette-color="primary" opacity="1"></path><path transform="translate(0,85.88)" d="M1.64-1.78v0c0.207-0.427 0.423-0.903 0.65-1.43 0.233-0.527 0.447-1.1 0.64-1.72v0l0.66-1.61c-0.293-0.44-0.59-0.917-0.89-1.43-0.3-0.513-0.573-1.04-0.82-1.58-0.247-0.533-0.447-1.07-0.6-1.61-0.153-0.533-0.23-1.053-0.23-1.56v0c0-0.033 0.127-0.063 0.38-0.09 0.253-0.02 0.57-0.04 0.95-0.06 0.38-0.013 0.797-0.023 1.25-0.03 0.447-0.013 0.86-0.023 1.24-0.03 0.38-0.007 0.697-0.013 0.95-0.02 0.253-0.007 0.38-0.01 0.38-0.01v0c0.373-0.98 0.74-1.91 1.1-2.79 0.36-0.88 0.717-1.767 1.07-2.66 0.36-0.893 0.72-1.807 1.08-2.74 0.36-0.94 0.717-1.947 1.07-3.02v0c0.687-2.02 1.353-3.793 2-5.32 0.653-1.533 1.267-2.957 1.84-4.27v0c0.06-0.167 0.17-0.32 0.33-0.46 0.153-0.133 0.32-0.25 0.5-0.35 0.173-0.1 0.347-0.18 0.52-0.24 0.173-0.067 0.307-0.117 0.4-0.15v0c0.067-0.02 0.317-0.093 0.75-0.22 0.427-0.133 0.917-0.273 1.47-0.42 0.56-0.147 1.11-0.277 1.65-0.39 0.547-0.113 0.983-0.17 1.31-0.17v0h0.44c0.26 0 0.507 0.063 0.74 0.19 0.24 0.12 0.4 0.36 0.48 0.72v0c0.78 2 1.613 4.183 2.5 6.55 0.887 2.367 1.753 4.977 2.6 7.83v0c0.46 1.527 0.907 2.973 1.34 4.34 0.44 1.367 0.88 2.703 1.32 4.01 0.44 1.3 0.883 2.6 1.33 3.9 0.447 1.3 0.907 2.643 1.38 4.03v0c0.147 0.587 0.297 1.05 0.45 1.39 0.16 0.34 0.303 0.61 0.43 0.81 0.133 0.193 0.24 0.333 0.32 0.42 0.08 0.093 0.12 0.19 0.12 0.29v0c0 0.093-0.153 0.19-0.46 0.29v0l-5.25 1.71c-0.393 0.147-0.793 0.293-1.2 0.44-0.407 0.147-0.79 0.277-1.15 0.39-0.353 0.113-0.667 0.207-0.94 0.28-0.267 0.073-0.457 0.11-0.57 0.11v0h-0.15c-0.227 0-0.387-0.07-0.48-0.21-0.1-0.14-0.167-0.273-0.2-0.4v0c-0.16-0.54-0.323-1.023-0.49-1.45-0.16-0.433-0.317-0.867-0.47-1.3-0.16-0.433-0.317-0.893-0.47-1.38-0.153-0.487-0.303-1.063-0.45-1.73v0c-0.033-0.08-0.123-0.15-0.27-0.21-0.147-0.053-0.32-0.097-0.52-0.13-0.207-0.033-0.423-0.053-0.65-0.06-0.227-0.013-0.437-0.02-0.63-0.02v0c-0.62 0-1.123 0.007-1.51 0.02-0.38 0.007-0.717 0.013-1.01 0.02-0.293 0.007-0.573 0.013-0.84 0.02-0.267 0.013-0.597 0.02-0.99 0.02v0c-0.473 0-0.957-0.007-1.45-0.02-0.5-0.007-0.953-0.017-1.36-0.03v0l-1.39-0.05c-0.42 1.173-0.843 2.27-1.27 3.29-0.42 1.027-0.877 2.087-1.37 3.18v0c-0.027 0.127-0.103 0.233-0.23 0.32-0.12 0.08-0.247 0.12-0.38 0.12v0c-0.093 0-0.15-0.01-0.17-0.03v0c-1.58-0.567-2.907-1.127-3.98-1.68-1.073-0.553-2.007-1.09-2.8-1.61zM18.09-23.73v0c-0.393 1.447-0.78 2.76-1.16 3.94-0.38 1.18-0.73 2.227-1.05 3.14-0.313 0.913-0.587 1.683-0.82 2.31-0.227 0.627-0.387 1.11-0.48 1.45v0 0.22c0 0.1-0.01 0.163-0.03 0.19v0h5.86c-0.18-0.793-0.37-1.597-0.57-2.41-0.207-0.813-0.407-1.67-0.6-2.57-0.193-0.893-0.39-1.853-0.59-2.88-0.193-1.027-0.38-2.157-0.56-3.39zM37.87-0.37l-0.42-8.71c0-0.02-0.003-0.037-0.01-0.05-0.007-0.02-0.01-0.037-0.01-0.05v0c0-0.273 0.147-0.41 0.44-0.41v0c0.147 0 0.307 0.07 0.48 0.21v0c0.88 0.833 1.857 1.493 2.93 1.98 1.08 0.487 2.253 0.73 3.52 0.73v0c0.34 0 0.73-0.033 1.17-0.1 0.44-0.073 0.857-0.197 1.25-0.37 0.387-0.173 0.717-0.397 0.99-0.67 0.267-0.28 0.4-0.63 0.4-1.05v0c0-0.473-0.113-0.897-0.34-1.27-0.233-0.373-0.537-0.69-0.91-0.95v0c-0.147-0.1-0.367-0.263-0.66-0.49-0.293-0.227-0.627-0.487-1-0.78-0.373-0.293-0.763-0.607-1.17-0.94-0.407-0.333-0.793-0.653-1.16-0.96-0.367-0.3-0.697-0.57-0.99-0.81-0.293-0.247-0.513-0.437-0.66-0.57v0c-0.96-0.713-1.72-1.437-2.28-2.17-0.56-0.733-0.987-1.497-1.28-2.29-0.293-0.8-0.48-1.627-0.56-2.48-0.08-0.853-0.12-1.76-0.12-2.72v0c0-1.433 0.34-2.793 1.02-4.08 0.687-1.287 1.65-2.407 2.89-3.36 1.247-0.953 2.74-1.71 4.48-2.27 1.747-0.56 3.683-0.84 5.81-0.84v0c0.267 0 0.66 0.03 1.18 0.09 0.52 0.053 1.093 0.147 1.72 0.28 0.627 0.127 1.263 0.303 1.91 0.53 0.653 0.233 1.25 0.527 1.79 0.88v0c0.173 0.133 0.313 0.263 0.42 0.39 0.107 0.133 0.177 0.337 0.21 0.61v0c0.08 1.32 0.147 2.62 0.2 3.9 0.047 1.273 0.11 2.627 0.19 4.06v0c0 0.28-0.057 0.463-0.17 0.55-0.113 0.093-0.26 0.14-0.44 0.14v0c-0.18 0-0.317-0.05-0.41-0.15v0c-0.473-0.473-0.963-0.937-1.47-1.39-0.507-0.46-1.037-0.863-1.59-1.21-0.553-0.353-1.143-0.633-1.77-0.84-0.627-0.213-1.303-0.32-2.03-0.32v0c-0.44 0-0.88 0.037-1.32 0.11-0.44 0.073-0.84 0.207-1.2 0.4-0.36 0.2-0.65 0.47-0.87 0.81-0.213 0.34-0.32 0.77-0.32 1.29v0c0 0.553 0.067 1.033 0.2 1.44 0.14 0.407 0.487 0.79 1.04 1.15v0l5.86 3.98c1.073 0.767 1.943 1.527 2.61 2.28 0.667 0.76 1.187 1.513 1.56 2.26 0.38 0.747 0.637 1.483 0.77 2.21 0.14 0.727 0.21 1.44 0.21 2.14v0c0 1.14-0.187 2.213-0.56 3.22-0.373 1.007-0.887 1.937-1.54 2.79-0.653 0.86-1.413 1.627-2.28 2.3-0.873 0.673-1.807 1.25-2.8 1.73-0.993 0.48-2.023 0.847-3.09 1.1-1.06 0.253-2.103 0.38-3.13 0.38v0c-0.8 0-1.587-0.013-2.36-0.04-0.773-0.02-1.527-0.083-2.26-0.19-0.733-0.107-1.44-0.27-2.12-0.49-0.687-0.22-1.337-0.527-1.95-0.92zM63.82 0.78v0l1.22-16.7c0.407-5.6 0.707-9.71 0.9-12.33 0.2-2.62 0.3-3.92 0.3-3.9v0c0.013-0.293 0.027-0.54 0.04-0.74 0.02-0.193 0.053-0.353 0.1-0.48 0.053-0.133 0.12-0.233 0.2-0.3 0.08-0.06 0.2-0.107 0.36-0.14v0l8.45-2.03c0.213-0.067 0.433-0.1 0.66-0.1v0c0.227 0 0.38 0.07 0.46 0.21 0.087 0.14 0.13 0.42 0.13 0.84v0c-0.12 1.013-0.21 1.957-0.27 2.83-0.067 0.88-0.12 1.72-0.16 2.52-0.04 0.8-0.077 1.57-0.11 2.31-0.033 0.74-0.073 1.477-0.12 2.21v0c-0.1 0.793-0.187 1.59-0.26 2.39-0.073 0.793-0.143 1.62-0.21 2.48-0.06 0.853-0.127 1.757-0.2 2.71-0.073 0.947-0.16 1.983-0.26 3.11v0l-1.08 12.87c-0.013 0.14-0.04 0.28-0.08 0.42-0.04 0.14-0.15 0.25-0.33 0.33v0c-0.013 0-0.11 0.033-0.29 0.1-0.18 0.067-0.417 0.153-0.71 0.26-0.293 0.1-0.637 0.21-1.03 0.33-0.387 0.113-0.8 0.217-1.24 0.31v0c-0.733 0.167-1.373 0.33-1.92 0.49-0.547 0.167-1.03 0.317-1.45 0.45-0.427 0.14-0.817 0.25-1.17 0.33-0.36 0.08-0.72 0.12-1.08 0.12v0c-0.24 0-0.443-0.063-0.61-0.19-0.16-0.133-0.24-0.37-0.24-0.71zM78.37-1.78v0c0.213-0.427 0.433-0.903 0.66-1.43 0.227-0.527 0.437-1.1 0.63-1.72v0l0.66-1.61c-0.293-0.44-0.59-0.917-0.89-1.43-0.3-0.513-0.573-1.04-0.82-1.58-0.24-0.533-0.437-1.07-0.59-1.61-0.16-0.533-0.24-1.053-0.24-1.56v0c0-0.033 0.127-0.063 0.38-0.09 0.253-0.02 0.57-0.04 0.95-0.06 0.387-0.013 0.803-0.023 1.25-0.03 0.447-0.013 0.86-0.023 1.24-0.03 0.387-0.007 0.707-0.013 0.96-0.02 0.247-0.007 0.37-0.01 0.37-0.01v0c0.38-0.98 0.747-1.91 1.1-2.79 0.36-0.88 0.72-1.767 1.08-2.66 0.353-0.893 0.71-1.807 1.07-2.74 0.36-0.94 0.72-1.947 1.08-3.02v0c0.68-2.02 1.347-3.793 2-5.32 0.647-1.533 1.257-2.957 1.83-4.27v0c0.067-0.167 0.177-0.32 0.33-0.46 0.153-0.133 0.32-0.25 0.5-0.35 0.18-0.1 0.353-0.18 0.52-0.24 0.173-0.067 0.31-0.117 0.41-0.15v0c0.06-0.02 0.307-0.093 0.74-0.22 0.433-0.133 0.927-0.273 1.48-0.42 0.553-0.147 1.103-0.277 1.65-0.39 0.54-0.113 0.973-0.17 1.3-0.17v0h0.44c0.26 0 0.51 0.063 0.75 0.19 0.233 0.12 0.39 0.36 0.47 0.72v0c0.78 2 1.617 4.183 2.51 6.55 0.887 2.367 1.753 4.977 2.6 7.83v0c0.453 1.527 0.9 2.973 1.34 4.34 0.44 1.367 0.88 2.703 1.32 4.01 0.44 1.3 0.883 2.6 1.33 3.9 0.447 1.3 0.907 2.643 1.38 4.03v0c0.147 0.587 0.297 1.05 0.45 1.39 0.153 0.34 0.297 0.61 0.43 0.81 0.127 0.193 0.23 0.333 0.31 0.42 0.08 0.093 0.12 0.19 0.12 0.29v0c0 0.093-0.153 0.19-0.46 0.29v0l-5.25 1.71c-0.387 0.147-0.783 0.293-1.19 0.44-0.407 0.147-0.79 0.277-1.15 0.39-0.36 0.113-0.673 0.207-0.94 0.28-0.267 0.073-0.46 0.11-0.58 0.11v0h-0.14c-0.227 0-0.39-0.07-0.49-0.21-0.1-0.14-0.167-0.273-0.2-0.4v0c-0.16-0.54-0.32-1.023-0.48-1.45-0.167-0.433-0.327-0.867-0.48-1.3-0.153-0.433-0.307-0.893-0.46-1.38-0.16-0.487-0.313-1.063-0.46-1.73v0c-0.027-0.08-0.113-0.15-0.26-0.21-0.147-0.053-0.323-0.097-0.53-0.13-0.2-0.033-0.417-0.053-0.65-0.06-0.227-0.013-0.437-0.02-0.63-0.02v0c-0.62 0-1.12 0.007-1.5 0.02-0.387 0.007-0.727 0.013-1.02 0.02-0.287 0.007-0.567 0.013-0.84 0.02-0.267 0.013-0.597 0.02-0.99 0.02v0c-0.467 0-0.95-0.007-1.45-0.02-0.493-0.007-0.943-0.017-1.35-0.03v0l-1.4-0.05c-0.42 1.173-0.843 2.27-1.27 3.29-0.42 1.027-0.873 2.087-1.36 3.18v0c-0.033 0.127-0.11 0.233-0.23 0.32-0.127 0.08-0.253 0.12-0.38 0.12v0c-0.1 0-0.157-0.01-0.17-0.03v0c-1.58-0.567-2.907-1.127-3.98-1.68-1.073-0.553-2.01-1.09-2.81-1.61zM94.82-23.73v0c-0.387 1.447-0.773 2.76-1.16 3.94-0.38 1.18-0.73 2.227-1.05 3.14-0.313 0.913-0.583 1.683-0.81 2.31-0.227 0.627-0.39 1.11-0.49 1.45v0 0.22c0 0.1-0.01 0.163-0.03 0.19v0h5.86c-0.173-0.793-0.363-1.597-0.57-2.41-0.207-0.813-0.407-1.67-0.6-2.57-0.193-0.893-0.387-1.853-0.58-2.88-0.2-1.027-0.39-2.157-0.57-3.39zM134.77-14.43v-18.28c0.127-0.54 0.24-0.933 0.34-1.18 0.093-0.24 0.303-0.403 0.63-0.49v0l6.33-1.48c0.193-0.067 0.403-0.1 0.63-0.1v0c0.213 0 0.367 0.073 0.46 0.22 0.1 0.147 0.15 0.423 0.15 0.83v0c-0.1 0.387-0.18 0.983-0.24 1.79-0.067 0.807-0.117 1.69-0.15 2.65-0.033 0.96-0.057 1.923-0.07 2.89-0.02 0.973-0.03 1.817-0.03 2.53v0 1.34c0 1.013-0.007 2.113-0.02 3.3-0.02 1.187-0.04 2.39-0.06 3.61-0.027 1.22-0.057 2.427-0.09 3.62-0.033 1.187-0.067 2.3-0.1 3.34v0l-0.14 4.18c-0.02 0.08-0.03 0.153-0.03 0.22 0 0.06 0 0.123 0 0.19v0 0.37c0 0.273 0.007 0.503 0.02 0.69 0.007 0.187 0.01 0.353 0.01 0.5v0c0 0.167-0.013 0.313-0.04 0.44-0.027 0.133-0.087 0.26-0.18 0.38-0.1 0.12-0.237 0.247-0.41 0.38-0.167 0.133-0.397 0.297-0.69 0.49v0c-0.167 0.113-0.437 0.28-0.81 0.5-0.373 0.22-0.787 0.467-1.24 0.74-0.46 0.28-0.933 0.567-1.42 0.86-0.487 0.293-0.933 0.557-1.34 0.79-0.407 0.24-0.737 0.43-0.99 0.57-0.253 0.147-0.38 0.22-0.38 0.22v0l-11.33-17.43-1.02 14.29c-0.02 0.127-0.05 0.263-0.09 0.41-0.04 0.147-0.15 0.26-0.33 0.34v0c-0.147 0.067-0.397 0.17-0.75 0.31-0.36 0.133-0.78 0.29-1.26 0.47-0.48 0.18-0.983 0.363-1.51 0.55-0.533 0.187-1.037 0.36-1.51 0.52-0.467 0.153-0.883 0.277-1.25 0.37-0.367 0.1-0.617 0.15-0.75 0.15v0c-0.24 0-0.443-0.067-0.61-0.2-0.16-0.127-0.24-0.36-0.24-0.7v0c0.16-2.033 0.347-4.253 0.56-6.66 0.213-2.4 0.417-4.86 0.61-7.38 0.193-2.527 0.377-5.047 0.55-7.56 0.173-2.513 0.317-4.9 0.43-7.16v0c0-0.067-0.103-0.283-0.31-0.65-0.2-0.367-0.427-0.767-0.68-1.2-0.253-0.427-0.483-0.833-0.69-1.22-0.2-0.38-0.3-0.62-0.3-0.72v0c0-0.113 0.06-0.217 0.18-0.31 0.12-0.1 0.32-0.233 0.6-0.4v0l6.52-3.68c0.047 0 0.117-0.01 0.21-0.03 0.087-0.013 0.163-0.02 0.23-0.02v0c0.18 0 0.323 0.02 0.43 0.06 0.1 0.04 0.207 0.167 0.32 0.38v0z" fill="#000000" fill-rule="nonzero" stroke="none" stroke-width="1" stroke-linecap="butt" stroke-linejoin="miter" stroke-miterlimit="10" stroke-dasharray="" stroke-dashoffset="0" font-family="none" font-weight="none" font-size="none" text-anchor="none" style="mix-blend-mode: normal" data-fill-palette-color="primary" opacity="1"></path><path transform="translate(0,128.82)" d="M27.71-20.07v0c-0.067 0.247-0.19 0.597-0.37 1.05-0.173 0.46-0.377 0.977-0.61 1.55-0.227 0.58-0.477 1.19-0.75 1.83-0.28 0.647-0.55 1.277-0.81 1.89v0c-0.113 0.28-0.247 0.487-0.4 0.62-0.153 0.127-0.467 0.197-0.94 0.21v0l-7.13 0.13-0.88 10.84c-0.013 0.147-0.053 0.287-0.12 0.42-0.067 0.14-0.163 0.25-0.29 0.33v0c-0.053 0.033-0.247 0.127-0.58 0.28-0.333 0.16-0.753 0.343-1.26 0.55-0.5 0.213-1.053 0.443-1.66 0.69-0.6 0.24-1.193 0.463-1.78 0.67-0.587 0.2-1.123 0.37-1.61 0.51-0.487 0.14-0.87 0.21-1.15 0.21v0c-0.327 0-0.623-0.06-0.89-0.18-0.267-0.127-0.4-0.377-0.4-0.75v0c-0.02-0.813 0-1.713 0.06-2.7 0.06-0.98 0.13-1.98 0.21-3 0.08-1.02 0.17-2.02 0.27-3 0.093-0.987 0.173-1.887 0.24-2.7v0l0.17-2.05c-1.367 0-2.343-0.037-2.93-0.11-0.587-0.073-0.88-0.263-0.88-0.57v0c0-0.213 0.123-0.49 0.37-0.83v0c0.34-0.473 0.727-1.043 1.16-1.71 0.433-0.667 0.847-1.32 1.24-1.96 0.4-0.633 0.75-1.193 1.05-1.68 0.307-0.487 0.5-0.787 0.58-0.9v0l0.46-6.72c-0.307 0-0.573 0.003-0.8 0.01-0.233 0.013-0.443 0.023-0.63 0.03-0.187 0.007-0.36 0.013-0.52 0.02-0.167 0.007-0.337 0.01-0.51 0.01v0c-0.787 0-1.347-0.043-1.68-0.13-0.333-0.087-0.5-0.253-0.5-0.5v0c0-0.113 0.1-0.35 0.3-0.71 0.193-0.36 0.433-0.77 0.72-1.23 0.28-0.467 0.587-0.957 0.92-1.47 0.333-0.507 0.63-0.98 0.89-1.42v0l1.47-2.49 11.11-0.39c1.433-0.053 2.857-0.107 4.27-0.16 1.413-0.06 2.72-0.113 3.92-0.16 1.193-0.053 2.223-0.1 3.09-0.14 0.86-0.04 1.46-0.067 1.8-0.08v0c0.02 0 0.067 0.003 0.14 0.01 0.073 0.007 0.15 0.03 0.23 0.07 0.08 0.04 0.157 0.11 0.23 0.21 0.073 0.1 0.11 0.24 0.11 0.42v0c0 0.093-0.113 0.417-0.34 0.97-0.227 0.553-0.553 1.377-0.98 2.47v0l-1.07 2.83c-0.113 0.28-0.243 0.493-0.39 0.64-0.147 0.14-0.457 0.22-0.93 0.24v0c-0.553 0.013-1.113 0.037-1.68 0.07-0.573 0.033-1.16 0.067-1.76 0.1v0l-7.42 0.37c-0.1 0.633-0.17 1.103-0.21 1.41-0.04 0.313-0.063 0.57-0.07 0.77-0.013 0.207-0.02 0.41-0.02 0.61 0 0.207-0.007 0.53-0.02 0.97v0c-0.02 0.307-0.04 0.567-0.06 0.78-0.027 0.207-0.053 0.413-0.08 0.62-0.02 0.207-0.043 0.423-0.07 0.65-0.027 0.227-0.047 0.51-0.06 0.85v0c1.073-0.033 2.127-0.067 3.16-0.1 1.033-0.027 1.987-0.057 2.86-0.09 0.867-0.033 1.62-0.063 2.26-0.09 0.633-0.027 1.08-0.04 1.34-0.04v0c0.127 0 0.273 0.05 0.44 0.15 0.16 0.1 0.24 0.287 0.24 0.56v0c0 0.133-0.023 0.28-0.07 0.44zM42.58-16.65v0c0 1.173 0.127 2.35 0.38 3.53 0.247 1.18 0.663 2.24 1.25 3.18 0.587 0.947 1.36 1.713 2.32 2.3 0.96 0.587 2.15 0.88 3.57 0.88v0c1.087-0.067 2.043-0.29 2.87-0.67 0.82-0.387 1.527-0.883 2.12-1.49 0.593-0.613 1.087-1.313 1.48-2.1 0.387-0.793 0.697-1.623 0.93-2.49 0.227-0.873 0.383-1.767 0.47-2.68 0.093-0.907 0.14-1.783 0.14-2.63v0c0-1.16-0.157-2.28-0.47-3.36-0.307-1.08-0.77-2.037-1.39-2.87-0.62-0.827-1.39-1.493-2.31-2-0.92-0.507-1.99-0.76-3.21-0.76v0c-0.96 0-1.827 0.18-2.6 0.54-0.773 0.36-1.46 0.837-2.06 1.43-0.6 0.593-1.117 1.277-1.55 2.05-0.433 0.773-0.793 1.57-1.08 2.39-0.28 0.82-0.49 1.643-0.63 2.47-0.14 0.82-0.217 1.58-0.23 2.28zM47.34 1.27v0c-2.44 0-4.62-0.457-6.54-1.37-1.92-0.907-3.543-2.14-4.87-3.7-1.327-1.553-2.347-3.35-3.06-5.39-0.707-2.047-1.06-4.207-1.06-6.48v0c0-2.56 0.363-4.917 1.09-7.07 0.72-2.16 1.733-4.073 3.04-5.74 1.3-1.667 2.85-3.073 4.65-4.22 1.8-1.147 3.773-1.997 5.92-2.55v0c0.193 0 0.343-0.157 0.45-0.47 0.107-0.307 0.2-0.647 0.28-1.02 0.08-0.373 0.177-0.717 0.29-1.03 0.12-0.307 0.283-0.46 0.49-0.46v0c3.16 0.327 6 0.883 8.52 1.67 2.527 0.787 4.667 1.913 6.42 3.38 1.76 1.467 3.107 3.32 4.04 5.56 0.94 2.233 1.41 4.963 1.41 8.19v0c0 2.067-0.253 4.01-0.76 5.83-0.507 1.827-1.213 3.507-2.12 5.04-0.913 1.54-2.01 2.917-3.29 4.13-1.273 1.213-2.693 2.243-4.26 3.09-1.56 0.847-3.24 1.493-5.04 1.94-1.8 0.447-3.667 0.67-5.6 0.67zM82.03-16.65v0c0 1.173 0.127 2.35 0.38 3.53 0.253 1.18 0.673 2.24 1.26 3.18 0.587 0.947 1.36 1.713 2.32 2.3 0.96 0.587 2.147 0.88 3.56 0.88v0c1.093-0.067 2.05-0.29 2.87-0.67 0.82-0.387 1.527-0.883 2.12-1.49 0.593-0.613 1.087-1.313 1.48-2.1 0.393-0.793 0.703-1.623 0.93-2.49 0.227-0.873 0.383-1.767 0.47-2.68 0.093-0.907 0.14-1.783 0.14-2.63v0c0-1.16-0.157-2.28-0.47-3.36-0.307-1.08-0.77-2.037-1.39-2.87-0.613-0.827-1.38-1.493-2.3-2-0.92-0.507-1.99-0.76-3.21-0.76v0c-0.96 0-1.827 0.18-2.6 0.54-0.773 0.36-1.463 0.837-2.07 1.43-0.6 0.593-1.117 1.277-1.55 2.05-0.427 0.773-0.783 1.57-1.07 2.39-0.287 0.82-0.5 1.643-0.64 2.47-0.133 0.82-0.21 1.58-0.23 2.28zM86.79 1.27v0c-2.44 0-4.62-0.457-6.54-1.37-1.92-0.907-3.543-2.14-4.87-3.7-1.327-1.553-2.343-3.35-3.05-5.39-0.713-2.047-1.07-4.207-1.07-6.48v0c0-2.56 0.363-4.917 1.09-7.07 0.727-2.16 1.74-4.073 3.04-5.74 1.3-1.667 2.85-3.073 4.65-4.22 1.8-1.147 3.773-1.997 5.92-2.55v0c0.193 0 0.343-0.157 0.45-0.47 0.107-0.307 0.2-0.647 0.28-1.02 0.087-0.373 0.187-0.717 0.3-1.03 0.113-0.307 0.277-0.46 0.49-0.46v0c3.153 0.327 5.993 0.883 8.52 1.67 2.52 0.787 4.66 1.913 6.42 3.38 1.753 1.467 3.1 3.32 4.04 5.56 0.933 2.233 1.4 4.963 1.4 8.19v0c0 2.067-0.253 4.01-0.76 5.83-0.5 1.827-1.207 3.507-2.12 5.04-0.913 1.54-2.007 2.917-3.28 4.13-1.28 1.213-2.7 2.243-4.26 3.09-1.567 0.847-3.247 1.493-5.04 1.94-1.8 0.447-3.67 0.67-5.61 0.67zM115.65 1.27h-4.44c-0.18-0.033-0.31-0.123-0.39-0.27-0.087-0.147-0.13-0.31-0.13-0.49v0c0-0.147 0.033-0.277 0.1-0.39v0l3-5.74c0.02-0.06 0.05-0.31 0.09-0.75 0.04-0.44 0.083-0.99 0.13-1.65 0.053-0.66 0.107-1.397 0.16-2.21 0.06-0.813 0.123-1.62 0.19-2.42 0.06-0.793 0.12-1.553 0.18-2.28 0.053-0.727 0.107-1.333 0.16-1.82v0c0.013-0.193 0.037-0.49 0.07-0.89 0.033-0.4 0.067-0.86 0.1-1.38 0.033-0.52 0.073-1.08 0.12-1.68 0.047-0.607 0.097-1.21 0.15-1.81v0l0.34-5.1c-0.44 0.093-0.897 0.193-1.37 0.3-0.473 0.107-0.933 0.2-1.38 0.28-0.447 0.087-0.87 0.157-1.27 0.21-0.4 0.06-0.747 0.09-1.04 0.09v0c-0.173 0-0.307-0.083-0.4-0.25-0.087-0.16-0.13-0.33-0.13-0.51v0c0-0.213 0.047-0.367 0.14-0.46v0l6.21-5.79c0.5-0.453 1-0.823 1.5-1.11 0.493-0.287 1.09-0.51 1.79-0.67 0.7-0.167 1.56-0.277 2.58-0.33 1.013-0.06 2.303-0.09 3.87-0.09v0c2.667 0 5.033 0.277 7.1 0.83 2.067 0.553 3.817 1.343 5.25 2.37v0c1.06 0.733 2.003 1.5 2.83 2.3 0.833 0.793 1.533 1.673 2.1 2.64 0.573 0.973 1.007 2.04 1.3 3.2 0.293 1.167 0.44 2.483 0.44 3.95v0c0 2.78-0.417 5.253-1.25 7.42-0.833 2.16-1.963 4.05-3.39 5.67-1.433 1.62-3.107 2.993-5.02 4.12-1.913 1.12-3.957 2.03-6.13 2.73-2.173 0.7-4.42 1.207-6.74 1.52-2.32 0.307-4.593 0.46-6.82 0.46zM125.39-28.13v0l-0.29 2.96c-0.1 1.027-0.203 2.12-0.31 3.28-0.107 1.167-0.207 2.347-0.3 3.54-0.1 1.2-0.2 2.38-0.3 3.54-0.093 1.167-0.18 2.253-0.26 3.26-0.087 1.013-0.16 1.917-0.22 2.71-0.067 0.8-0.123 1.437-0.17 1.91v0l-0.08 0.73c1.973 0 3.637-0.317 4.99-0.95 1.36-0.64 2.463-1.517 3.31-2.63 0.847-1.113 1.463-2.42 1.85-3.92 0.38-1.493 0.57-3.103 0.57-4.83v0c0-1.24-0.17-2.433-0.51-3.58-0.347-1.147-0.843-2.24-1.49-3.28v0c-0.653-1.04-1.45-1.82-2.39-2.34-0.947-0.527-2.013-0.79-3.2-0.79v0c-0.2 0-0.413 0.047-0.64 0.14-0.227 0.087-0.413 0.17-0.56 0.25z" fill="#000000" fill-rule="nonzero" stroke="none" stroke-width="1" stroke-linecap="butt" stroke-linejoin="miter" stroke-miterlimit="10" stroke-dasharray="" stroke-dashoffset="0" font-family="none" font-weight="none" font-size="none" text-anchor="none" style="mix-blend-mode: normal" data-fill-palette-color="primary" opacity="1"></path><path transform="translate(0,171.77)" d="M4.27-0.37l-0.41-8.71c0-0.02-0.003-0.037-0.01-0.05-0.013-0.02-0.02-0.037-0.02-0.05v0c0-0.273 0.147-0.41 0.44-0.41v0c0.147 0 0.31 0.07 0.49 0.21v0c0.88 0.833 1.857 1.493 2.93 1.98 1.073 0.487 2.247 0.73 3.52 0.73v0c0.34 0 0.73-0.033 1.17-0.1 0.44-0.073 0.853-0.197 1.24-0.37 0.393-0.173 0.723-0.397 0.99-0.67 0.267-0.28 0.4-0.63 0.4-1.05v0c0-0.473-0.113-0.897-0.34-1.27-0.227-0.373-0.527-0.69-0.9-0.95v0c-0.147-0.1-0.367-0.263-0.66-0.49-0.293-0.227-0.627-0.487-1-0.78-0.373-0.293-0.763-0.607-1.17-0.94-0.407-0.333-0.793-0.653-1.16-0.96-0.367-0.3-0.697-0.57-0.99-0.81-0.293-0.247-0.513-0.437-0.66-0.57v0c-0.96-0.713-1.72-1.437-2.28-2.17-0.567-0.733-0.993-1.497-1.28-2.29-0.293-0.8-0.483-1.627-0.57-2.48-0.08-0.853-0.12-1.76-0.12-2.72v0c0-1.433 0.343-2.793 1.03-4.08 0.68-1.287 1.643-2.407 2.89-3.36 1.247-0.953 2.74-1.71 4.48-2.27 1.74-0.56 3.677-0.84 5.81-0.84v0c0.26 0 0.65 0.03 1.17 0.09 0.52 0.053 1.093 0.147 1.72 0.28 0.627 0.127 1.267 0.303 1.92 0.53 0.653 0.233 1.247 0.527 1.78 0.88v0c0.18 0.133 0.323 0.263 0.43 0.39 0.107 0.133 0.177 0.337 0.21 0.61v0c0.08 1.32 0.143 2.62 0.19 3.9 0.053 1.273 0.12 2.627 0.2 4.06v0c0 0.28-0.057 0.463-0.17 0.55-0.113 0.093-0.26 0.14-0.44 0.14v0c-0.18 0-0.32-0.05-0.42-0.15v0c-0.473-0.473-0.96-0.937-1.46-1.39-0.507-0.46-1.037-0.863-1.59-1.21-0.553-0.353-1.143-0.633-1.77-0.84-0.627-0.213-1.307-0.32-2.04-0.32v0c-0.44 0-0.88 0.037-1.32 0.11-0.44 0.073-0.837 0.207-1.19 0.4-0.36 0.2-0.65 0.47-0.87 0.81-0.22 0.34-0.33 0.77-0.33 1.29v0c0 0.553 0.07 1.033 0.21 1.44 0.14 0.407 0.487 0.79 1.04 1.15v0l5.86 3.98c1.073 0.767 1.943 1.527 2.61 2.28 0.667 0.76 1.187 1.513 1.56 2.26 0.373 0.747 0.63 1.483 0.77 2.21 0.14 0.727 0.21 1.44 0.21 2.14v0c0 1.14-0.187 2.213-0.56 3.22-0.38 1.007-0.893 1.937-1.54 2.79-0.653 0.86-1.417 1.627-2.29 2.3-0.867 0.673-1.797 1.25-2.79 1.73-0.993 0.48-2.023 0.847-3.09 1.1-1.067 0.253-2.113 0.38-3.14 0.38v0c-0.793 0-1.577-0.013-2.35-0.04-0.773-0.02-1.527-0.083-2.26-0.19-0.733-0.107-1.44-0.27-2.12-0.49-0.687-0.22-1.34-0.527-1.96-0.92zM35.33 0.88v-0.1c0.08-1.187 0.16-2.333 0.24-3.44 0.08-1.107 0.153-2.18 0.22-3.22v0l0.88-11.53c0.1-0.88 0.18-1.68 0.24-2.4 0.067-0.727 0.12-1.437 0.16-2.13 0.04-0.687 0.08-1.387 0.12-2.1 0.047-0.707 0.093-1.49 0.14-2.35v0c-0.54-0.02-1.107-0.03-1.7-0.03-0.593 0-1.217 0-1.87 0v0h-4.71c-0.18 0-0.29-0.067-0.33-0.2-0.04-0.14-0.06-0.267-0.06-0.38v0-0.17l2.69-7.06-0.03-0.1c0-0.08 0.053-0.147 0.16-0.2 0.107-0.06 0.347-0.107 0.72-0.14v0c2.247-0.127 4.423-0.253 6.53-0.38 2.107-0.12 4.19-0.23 6.25-0.33 2.06-0.093 4.12-0.19 6.18-0.29 2.06-0.1 4.18-0.19 6.36-0.27v0c0.193 0 0.4 0.027 0.62 0.08 0.22 0.047 0.33 0.223 0.33 0.53v0c0 0.033-0.007 0.067-0.02 0.1-0.02 0.033-0.03 0.067-0.03 0.1v0c-0.26 0.667-0.5 1.3-0.72 1.9-0.22 0.607-0.433 1.2-0.64 1.78-0.213 0.587-0.43 1.183-0.65 1.79-0.22 0.6-0.46 1.233-0.72 1.9v0c-0.02 0.02-0.053 0.097-0.1 0.23-0.047 0.14-0.12 0.297-0.22 0.47-0.1 0.167-0.23 0.323-0.39 0.47-0.16 0.147-0.363 0.23-0.61 0.25v0c-0.08-0.02-0.16-0.03-0.24-0.03-0.087 0-0.177 0-0.27 0v0h-6.52c-0.08 0.833-0.157 1.713-0.23 2.64-0.073 0.927-0.16 1.83-0.26 2.71v0l-1.78 19.07c-0.02 0.147-0.05 0.293-0.09 0.44-0.04 0.147-0.15 0.25-0.33 0.31v0l-6.91 2.49c-0.173 0.067-0.407 0.15-0.7 0.25-0.293 0.093-0.58 0.14-0.86 0.14v0c-0.227 0-0.427-0.057-0.6-0.17-0.167-0.113-0.25-0.323-0.25-0.63zM67.41-16.65v0c0 1.173 0.127 2.35 0.38 3.53 0.247 1.18 0.663 2.24 1.25 3.18 0.587 0.947 1.36 1.713 2.32 2.3 0.96 0.587 2.15 0.88 3.57 0.88v0c1.087-0.067 2.043-0.29 2.87-0.67 0.82-0.387 1.527-0.883 2.12-1.49 0.593-0.613 1.087-1.313 1.48-2.1 0.387-0.793 0.693-1.623 0.92-2.49 0.233-0.873 0.393-1.767 0.48-2.68 0.087-0.907 0.13-1.783 0.13-2.63v0c0-1.16-0.153-2.28-0.46-3.36-0.307-1.08-0.77-2.037-1.39-2.87-0.62-0.827-1.39-1.493-2.31-2-0.92-0.507-1.99-0.76-3.21-0.76v0c-0.96 0-1.827 0.18-2.6 0.54-0.773 0.36-1.46 0.837-2.06 1.43-0.6 0.593-1.117 1.277-1.55 2.05-0.433 0.773-0.793 1.57-1.08 2.39-0.28 0.82-0.49 1.643-0.63 2.47-0.14 0.82-0.217 1.58-0.23 2.28zM72.17 1.27v0c-2.44 0-4.62-0.457-6.54-1.37-1.927-0.907-3.553-2.14-4.88-3.7-1.327-1.553-2.343-3.35-3.05-5.39-0.707-2.047-1.06-4.207-1.06-6.48v0c0-2.56 0.363-4.917 1.09-7.07 0.72-2.16 1.733-4.073 3.04-5.74 1.3-1.667 2.85-3.073 4.65-4.22 1.8-1.147 3.773-1.997 5.92-2.55v0c0.193 0 0.343-0.157 0.45-0.47 0.107-0.307 0.2-0.647 0.28-1.02 0.08-0.373 0.177-0.717 0.29-1.03 0.113-0.307 0.277-0.46 0.49-0.46v0c3.16 0.327 6 0.883 8.52 1.67 2.527 0.787 4.667 1.913 6.42 3.38 1.76 1.467 3.107 3.32 4.04 5.56 0.94 2.233 1.41 4.963 1.41 8.19v0c0 2.067-0.253 4.01-0.76 5.83-0.507 1.827-1.213 3.507-2.12 5.04-0.913 1.54-2.01 2.917-3.29 4.13-1.273 1.213-2.693 2.243-4.26 3.09-1.56 0.847-3.24 1.493-5.04 1.94-1.8 0.447-3.667 0.67-5.6 0.67zM109.84-15.48l-1.2 13.53c-0.013 0.147-0.04 0.287-0.08 0.42-0.04 0.14-0.15 0.25-0.33 0.33v0c-0.067 0.033-0.39 0.153-0.97 0.36-0.573 0.2-1.24 0.437-2 0.71-0.753 0.267-1.5 0.533-2.24 0.8-0.747 0.267-1.313 0.473-1.7 0.62v0c-0.193 0.087-0.433 0.173-0.72 0.26-0.287 0.087-0.567 0.13-0.84 0.13v0c-0.233 0-0.433-0.057-0.6-0.17-0.173-0.113-0.26-0.323-0.26-0.63v0c0-0.72 0.02-1.377 0.06-1.97 0.04-0.593 0.093-1.213 0.16-1.86 0.067-0.653 0.137-1.373 0.21-2.16 0.073-0.793 0.143-1.733 0.21-2.82v0c0.08-1.433 0.167-2.813 0.26-4.14 0.1-1.327 0.2-2.707 0.3-4.14v0l0.34-4.18c0.047-0.68 0.097-1.373 0.15-2.08 0.047-0.713 0.093-1.443 0.14-2.19v0l0.27-2.98c0-0.033-0.05-0.05-0.15-0.05v0c-0.127 0-0.343 0.03-0.65 0.09-0.313 0.06-0.68 0.13-1.1 0.21-0.427 0.08-0.897 0.163-1.41 0.25-0.513 0.093-1.037 0.18-1.57 0.26v0c-0.133 0-0.26-0.03-0.38-0.09-0.12-0.053-0.18-0.12-0.18-0.2v0c0-0.067 0.017-0.117 0.05-0.15v0l3.95-6.91c0.893-0.193 1.857-0.393 2.89-0.6 1.033-0.2 2.147-0.383 3.34-0.55 1.187-0.16 2.447-0.293 3.78-0.4 1.333-0.107 2.75-0.16 4.25-0.16v0c1.693 0.033 3.34 0.2 4.94 0.5 1.607 0.3 3.03 0.807 4.27 1.52 1.247 0.707 2.25 1.667 3.01 2.88 0.753 1.213 1.13 2.747 1.13 4.6v0c0 1.027-0.173 1.97-0.52 2.83-0.353 0.867-0.8 1.643-1.34 2.33-0.547 0.693-1.147 1.303-1.8 1.83-0.653 0.533-1.277 0.987-1.87 1.36-0.593 0.373-1.117 0.67-1.57 0.89-0.46 0.22-0.77 0.363-0.93 0.43v0c0 0.033 0.013 0.073 0.04 0.12 0.02 0.047 0.073 0.14 0.16 0.28 0.08 0.14 0.197 0.337 0.35 0.59 0.153 0.247 0.353 0.59 0.6 1.03v0c0.26 0.393 0.57 0.917 0.93 1.57 0.353 0.647 0.78 1.413 1.28 2.3 0.493 0.887 1.067 1.877 1.72 2.97 0.653 1.093 1.4 2.267 2.24 3.52v0c0.28 0.24 0.6 0.39 0.96 0.45 0.353 0.053 0.687 0.083 1 0.09 0.307 0.013 0.567 0.03 0.78 0.05 0.213 0.027 0.32 0.13 0.32 0.31v0c0 0.127-0.137 0.277-0.41 0.45-0.267 0.173-0.58 0.35-0.94 0.53-0.353 0.173-0.713 0.343-1.08 0.51-0.367 0.16-0.647 0.29-0.84 0.39v0c-0.393 0.193-0.803 0.38-1.23 0.56-0.42 0.18-0.873 0.38-1.36 0.6-0.493 0.22-1.037 0.477-1.63 0.77-0.593 0.293-1.263 0.643-2.01 1.05v0c-0.193 0.113-0.377 0.19-0.55 0.23-0.173 0.04-0.333 0.06-0.48 0.06v0c-0.293 0-0.543-0.07-0.75-0.21-0.213-0.133-0.393-0.3-0.54-0.5-0.147-0.193-0.263-0.393-0.35-0.6-0.093-0.2-0.173-0.367-0.24-0.5v0zM111.11-28.86l-0.98 10.38c0.833 0 1.697-0.213 2.59-0.64 0.893-0.42 1.707-0.963 2.44-1.63 0.733-0.667 1.337-1.423 1.81-2.27 0.473-0.847 0.71-1.703 0.71-2.57v0c0-2.36-1.417-3.54-4.25-3.54v0c-0.54 0-0.99 0.037-1.35 0.11-0.353 0.073-0.677 0.127-0.97 0.16zM153.52-20.26v0c-0.067 0.227-0.19 0.547-0.37 0.96-0.18 0.413-0.387 0.88-0.62 1.4-0.24 0.527-0.493 1.087-0.76 1.68-0.267 0.593-0.53 1.19-0.79 1.79v0c-0.1 0.227-0.19 0.393-0.27 0.5-0.08 0.107-0.21 0.183-0.39 0.23-0.18 0.053-0.43 0.083-0.75 0.09-0.313 0.007-0.757 0.02-1.33 0.04v0l-3.39 0.07-0.68 7.47h12.52v0.95c-0.033 0.033-0.173 0.25-0.42 0.65-0.24 0.4-0.523 0.877-0.85 1.43-0.327 0.553-0.67 1.11-1.03 1.67-0.353 0.56-0.653 1.01-0.9 1.35v0c-0.16 0.293-0.347 0.527-0.56 0.7-0.213 0.173-0.447 0.3-0.7 0.38-0.247 0.08-0.523 0.13-0.83 0.15-0.3 0.013-0.627 0.02-0.98 0.02v0c-1.467 0-2.993-0.033-4.58-0.1-1.587-0.067-3.17-0.147-4.75-0.24-1.58-0.1-3.123-0.21-4.63-0.33-1.507-0.12-2.9-0.247-4.18-0.38v0c-0.12-0.013-0.223-0.08-0.31-0.2-0.087-0.113-0.13-0.243-0.13-0.39v0c-0.067 0-0.023-0.137 0.13-0.41 0.153-0.28 0.37-0.64 0.65-1.08 0.273-0.433 0.577-0.933 0.91-1.5 0.333-0.56 0.657-1.123 0.97-1.69v0l0.39-5.5c0.067-0.927 0.12-1.617 0.16-2.07 0.04-0.46 0.06-0.703 0.06-0.73v0c-0.98-0.02-1.71-0.07-2.19-0.15-0.48-0.08-0.72-0.26-0.72-0.54v0c0-0.127 0.12-0.37 0.36-0.73 0.233-0.36 0.52-0.77 0.86-1.23 0.347-0.467 0.71-0.953 1.09-1.46 0.38-0.5 0.717-0.963 1.01-1.39v0l0.61-8.3h-0.07c-0.36 0.02-0.687 0.033-0.98 0.04-0.293 0.007-0.56 0.01-0.8 0.01v0c-0.78 0-1.34-0.043-1.68-0.13-0.333-0.093-0.5-0.26-0.5-0.5v0c0-0.12 0.1-0.357 0.3-0.71 0.193-0.36 0.437-0.773 0.73-1.24 0.293-0.46 0.603-0.947 0.93-1.46 0.327-0.513 0.62-0.99 0.88-1.43v0l1.46-2.49h10.21l12.03-0.88c0.02 0 0.067 0.003 0.14 0.01 0.073 0.013 0.15 0.04 0.23 0.08 0.08 0.04 0.157 0.11 0.23 0.21 0.073 0.093 0.11 0.23 0.11 0.41v0l-0.37 1.27c-0.113 0.36-0.25 0.74-0.41 1.14-0.16 0.393-0.34 0.803-0.54 1.23v0l-1.07 2.83c-0.113 0.28-0.243 0.49-0.39 0.63-0.147 0.147-0.457 0.23-0.93 0.25v0c-1.24 0.033-2.62 0.087-4.14 0.16-1.52 0.073-3.267 0.143-5.24 0.21v0c-0.06 0.227-0.09 0.407-0.09 0.54 0 0.14-0.017 0.407-0.05 0.8v0l-0.12 1.12c-0.033 0.52-0.083 1.083-0.15 1.69-0.067 0.6-0.147 1.34-0.24 2.22v0c0.827-0.033 1.633-0.067 2.42-0.1 0.793-0.033 1.517-0.063 2.17-0.09 0.647-0.02 1.21-0.04 1.69-0.06 0.48-0.013 0.82-0.02 1.02-0.02v0c0.127 0 0.27 0.05 0.43 0.15 0.167 0.093 0.25 0.28 0.25 0.56v0c0 0.127-0.023 0.273-0.07 0.44z" fill="#000000" fill-rule="nonzero" stroke="none" stroke-width="1" stroke-linecap="butt" stroke-linejoin="miter" stroke-miterlimit="10" stroke-dasharray="" stroke-dashoffset="0" font-family="none" font-weight="none" font-size="none" text-anchor="none" style="mix-blend-mode: normal" data-fill-palette-color="primary" opacity="1"></path></g></svg></g></svg></g></svg></g></svg></g><g transform="matrix(1,0,0,1,0,0.4999999999999858)"><svg viewBox="0 0 75.39724829060583 200" height="200" width="75.39724829060583"><g><svg xmlns="http://www.w3.org/2000/svg" data-name="Layer 1" viewBox="1.6909576109907463 0 1.6183766321965936 4.292932882533954" x="0" y="0" height="200" width="75.39724829060583" class="icon-icon-0" data-fill-palette-color="accent" id="icon-0"><path d="M1.84 2.169a0.635 0.635 0 0 1-0.003 0.17c-0.004 0.019-0.006 0.038-0.008 0.058a0.11 0.11 0 0 0 0.001 0.025 0.245 0.245 0 0 1-0.001 0.07 0.747 0.747 0 0 0-0.011 0.163 0.17 0.17 0 0 0 0.003 0.029 0.165 0.165 0 0 1 0.001 0.062 0.416 0.416 0 0 0-0.004 0.041c-0.001 0.038-0.002 0.075-0.003 0.113a0.089 0.089 0 0 0 0.001 0.013c0.001 0.007 0.003 0.014 0.011 0.015a0.057 0.057 0 0 1 0.038 0.036 0.109 0.109 0 0 1 0.009 0.023 0.895 0.895 0 0 0 0.042 0.105 0.102 0.102 0 0 0 0.045 0.009c0.031-0.001 0.061-0.004 0.091-0.006 0.008-0.001 0.011-0.006 0.008-0.015l-0.006-0.016a0.05 0.05 0 0 1-0.003-0.028c0.004-0.026 0.011-0.033 0.036-0.039l0.017-0.003a0.041 0.041 0 0 1 0.032 0.002A0.016 0.016 0 0 0 2.152 2.995l0.005-0.006-0.006-0.009a0.08 0.08 0 0 0-0.021 0.003 0.031 0.031 0 0 1-0.024-0.004c-0.021-0.013-0.028-0.016-0.013-0.042 0.008-0.013 0.009-0.03 0.02-0.041 0.002-0.012 0.004-0.025 0.004-0.038 0.001-0.011-0.002-0.022-0.001-0.033l0.008-0.008 0.007 0.003 0.01 0.013a0.27 0.27 0 0 1 0.021 0.077l0.003 0.02a0.024 0.024 0 0 0 0.016 0.019 0.092 0.092 0 0 1 0.051 0.04 0.397 0.397 0 0 0 0.037 0.038 0.15 0.15 0 0 1 0.021 0.004 0.039 0.039 0 0 1 0.031 0.036l0.003 0.025 0.024 0.008 0.022 0.013a0.014 0.014 0 0 0 0.02-0.013l-0.002-0.033A0.017 0.017 0 0 1 2.408 3.05l0.016 0.004c0.011 0.002 0.018-0.005 0.018-0.017l-0.003-0.017a0.036 0.036 0 0 1 0.004-0.028 0.054 0.054 0 0 0 0-0.056A0.044 0.044 0 0 1 2.441 2.9a0.07 0.07 0 0 0 0.001-0.021 0.506 0.506 0 0 1 0.006-0.108 0.793 0.793 0 0 1 0.005-0.112c0.001-0.037-0.006-0.072-0.009-0.109-0.001-0.019-0.005-0.039-0.007-0.058A0.036 0.036 0 0 1 2.451 2.459a0.016 0.016 0 0 1 0.015-0.004 0.015 0.015 0 0 1 0.01 0.013c0.003 0.021 0.006 0.041 0.008 0.062 0.002 0.026 0.004 0.053 0.005 0.079a0.645 0.645 0 0 0 0.006 0.079 0.674 0.674 0 0 1 0.01 0.088c0.001 0.035 0 0.07-0.001 0.104a0.193 0.193 0 0 1-0.006 0.066l-0.001 0.005c-0.001 0.011 0.01 0.021 0.006 0.032-0.004 0.01-0.012 0.019-0.015 0.029a0.151 0.151 0 0 0-0.005 0.033 0.021 0.021 0 0 0 0.016 0.022l0.012-0.001a0.04 0.04 0 0 0 0.014-0.015 0.121 0.121 0 0 0 0.012-0.044c0-0.019 0.007-0.035 0.007-0.053-0.001-0.018 0-0.036 0-0.055A0.162 0.162 0 0 0 2.547 2.866a0.91 0.91 0 0 1-0.003-0.104 1.222 1.222 0 0 1-0.006-0.133 0.327 0.327 0 0 0-0.014-0.078c-0.005-0.026-0.013-0.051-0.017-0.078a0.282 0.282 0 0 1-0.001-0.091 0.213 0.213 0 0 0 0.001-0.025l-0.009-0.006c-0.011 0.007-0.022 0.013-0.032 0.02a0.294 0.294 0 0 1-0.114 0.049 0.088 0.088 0 0 0-0.042 0.018 0.103 0.103 0 0 1-0.065 0.024 0.11 0.11 0 0 0-0.025 0.005 0.054 0.054 0 0 1-0.028 0.002 0.028 0.028 0 0 0-0.027 0.008c-0.021 0.018-0.042 0.037-0.064 0.054a0.667 0.667 0 0 0-0.094 0.094 0.042 0.042 0 0 1-0.024 0.016c-0.02 0.004-0.029 0.021-0.037 0.037a0.027 0.027 0 0 0 0.005 0.031c0.014 0.012 0.028 0.023 0.042 0.035a0.038 0.038 0 0 0 0.035 0.008 0.127 0.127 0 0 0 0.057-0.026c0.019-0.017 0.038-0.033 0.057-0.049l0.014-0.01a0.018 0.018 0 0 1 0.019 0.002 0.061 0.061 0 0 1 0.003 0.084 0.237 0.237 0 0 1-0.028 0.025c-0.013 0.01-0.027 0.02-0.04 0.029l-0.022 0.013c-0.012 0.006-0.025 0.011-0.038 0.018a0.261 0.261 0 0 1-0.076 0.023 0.08 0.08 0 0 1-0.075-0.029 0.024 0.024 0 0 1-0.007-0.023l0.002-0.011-0.005-0.007a0.079 0.079 0 0 1-0.043-0.059 0.071 0.071 0 0 1 0.004-0.049 0.244 0.244 0 0 1 0.045-0.07 0.647 0.647 0 0 1 0.098-0.084 0.975 0.975 0 0 0 0.121-0.103l0.008-0.01c0.003-0.005 0.001-0.012-0.005-0.013a0.024 0.024 0 0 1-0.023-0.019l-0.005-0.015c-0.023-0.009-0.046-0.016-0.068-0.026-0.021-0.008-0.041-0.018-0.061-0.027-0.01-0.005-0.02-0.01-0.029-0.016a0.012 0.012 0 0 1-0.003-0.015A0.171 0.171 0 0 0 1.94 2.263a0.034 0.034 0 0 0 0.002-0.02c-0.007-0.021-0.015-0.042-0.023-0.063l-0.003-0.001-0.004 0.001-0.001 0.004c-0.002 0.029-0.008 0.058-0.01 0.087-0.001 0.026-0.001 0.053-0.002 0.079s-0.003 0.053-0.005 0.079a0.137 0.137 0 0 1-0.017 0.052l-0.003 0.002-0.007 0.002-0.006-0.005a0.047 0.047 0 0 1-0.004-0.016 0.702 0.702 0 0 1 0.008-0.146 0.051 0.051 0 0 0 0.001-0.013 0.97 0.97 0 0 1 0.01-0.141 0.207 0.207 0 0 1 0.007-0.042A0.242 0.242 0 0 0 1.888 2.027c0-0.006-0.004-0.011-0.003-0.016a0.208 0.208 0 0 0-0.001-0.075 0.073 0.073 0 0 1 0-0.021 0.994 0.994 0 0 1 0.013-0.103 0.265 0.265 0 0 0 0.004-0.038l0.004-0.028c0.001-0.006 0.009-0.011 0.012-0.008l0.006 0.01a0.402 0.402 0 0 0-0.005 0.066c-0.001 0.017-0.004 0.033-0.006 0.05a0.086 0.086 0 0 0 0.001 0.016l0.003 0.004a0.06 0.06 0 0 0 0.028-0.015 0.379 0.379 0 0 1 0.012-0.04 0.105 0.105 0 0 0 0.007-0.072 0.247 0.247 0 0 0 0.018-0.039 0.544 0.544 0 0 0 0.01-0.058A0.014 0.014 0 0 0 1.978 1.646l-0.029 0.004A0.014 0.014 0 0 1 1.935 1.643a0.015 0.015 0 0 1 0-0.015 0.061 0.061 0 0 1 0.059-0.033 0.229 0.229 0 0 0 0.025 0 0.013 0.013 0 0 0 0.01-0.015l-0.004-0.012a0.02 0.02 0 0 1 0.005-0.02 0.076 0.076 0 0 0 0.015-0.029c0.01-0.023 0.021-0.045 0.033-0.068a0.08 0.08 0 0 1 0.023-0.028l0.011-0.011a0.049 0.049 0 0 0-0.028-0.04 0.018 0.018 0 0 1-0.008-0.014c-0.001-0.017-0.001-0.033-0.001-0.05 0-0.015 0.001-0.031 0.001-0.046a0.088 0.088 0 0 0-0.003-0.029 0.056 0.056 0 0 1 0.003-0.044l0.016-0.039c0.002-0.005 0.006-0.011 0.001-0.014a0.028 0.028 0 0 0-0.016-0.004 0.064 0.064 0 0 0-0.031 0.012 0.029 0.029 0 0 1-0.028 0.001 0.09 0.09 0 0 0-0.019-0.009c-0.025-0.004-0.036-0.022-0.05-0.04A0.139 0.139 0 0 1 1.927 0.969C1.93 0.957 1.934 0.945 1.937 0.933L1.931 0.927C1.924 0.925 1.917 0.923 1.917 0.914a0.025 0.025 0 0 1 0.004-0.015A0.22 0.22 0 0 1 1.972 0.845c0.021-0.013 0.039-0.031 0.06-0.047A0.386 0.386 0 0 1 2.07 0.773c0.02-0.012 0.041-0.023 0.062-0.034a0.053 0.053 0 0 1 0.016-0.006A0.718 0.718 0 0 1 2.23 0.718C2.245 0.717 2.26 0.715 2.275 0.713A0.229 0.229 0 0 1 2.342 0.709 0.175 0.175 0 0 0 2.375 0.707 0.103 0.103 0 0 1 2.435 0.72l0.006 0.01c0.001 0.004-0.005 0.011-0.009 0.012a0.08 0.08 0 0 1-0.02 0.003C2.398 0.744 2.384 0.742 2.37 0.74a0.068 0.068 0 0 0-0.041 0.007 0.379 0.379 0 0 1-0.124 0.034c-0.022 0.003-0.044 0.009-0.065 0.014-0.009 0.002-0.018 0.007-0.028 0.009a0.214 0.214 0 0 0-0.101 0.056A0.057 0.057 0 0 0 1.998 0.877a0.255 0.255 0 0 0-0.027 0.065 0.446 0.446 0 0 0-0.016 0.069 0.046 0.046 0 0 0 0.008 0.036 0.057 0.057 0 0 1 0.01 0.018 0.091 0.091 0 0 0 0.05 0.053c0.011 0.003 0.018-0.007 0.027-0.008l0.029-0.004a0.037 0.037 0 0 0 0.032-0.023l0.006-0.011a0.014 0.014 0 0 1 0.018-0.006l0.008 0.003c0.012-0.001 0.017-0.013 0.028-0.017L2.176 1.04l0.01-0.028a0.012 0.012 0 0 1 0.014-0.004c0.007 0.004 0.012 0.012 0.022 0.011 0.016-0.002 0.023 0.007 0.027 0.02l0.006 0.024 0.008-0.004 0.005-0.016a0.011 0.011 0 0 1 0.017-0.006l0.022 0.019 0.024 0.017 0.025 0.022a0.028 0.028 0 0 1 0.008 0.034l-0.007 0.017 0.013 0.027c0.012 0.007 0.02 0.001 0.03-0.003L2.397 1.165l-0.011-0.007a0.017 0.017 0 0 1-0.006-0.022 0.04 0.04 0 0 1 0.035-0.027l0.016-0.002a0.028 0.028 0 0 0 0.018-0.009 0.064 0.064 0 0 1 0.031-0.022 0.012 0.012 0 0 1 0.014 0.006l0.004 0.02 0.007 0.002A0.038 0.038 0 0 0 2.524 1.083 0.598 0.598 0 0 0 2.559 0.989L2.567 0.952a0.067 0.067 0 0 0-0.008-0.052L2.542 0.871A0.041 0.041 0 0 1 2.554 0.819a0.019 0.019 0 0 1 0.028 0.007c0.008 0.022 0.015 0.045 0.022 0.068l0.003 0.012a0.337 0.337 0 0 1 0.005 0.194 0.047 0.047 0 0 1-0.011 0.022 0.526 0.526 0 0 1-0.044 0.05 0.158 0.158 0 0 1-0.115 0.042 0.056 0.056 0 0 0-0.016 0.001 0.026 0.026 0 0 0-0.015 0.007 0.358 0.358 0 0 0-0.042 0.062c-0.012 0.027-0.031 0.05-0.041 0.078a0.051 0.051 0 0 1-0.013 0.016l-0.018 0.016a0.027 0.027 0 0 0-0.008 0.019 0.063 0.063 0 0 0 0.013 0.047l0.042 0.053 0.021 0.001a0.062 0.062 0 0 1 0.028 0.008 0.123 0.123 0 0 0 0.03 0.013 0.274 0.274 0 0 1 0.066 0.035 0.044 0.044 0 0 1 0.019 0.022 0.504 0.504 0 0 1 0.046 0.138 0.192 0.192 0 0 0 0.019 0.064 0.242 0.242 0 0 1 0.016 0.047c0.006 0.02 0.01 0.041 0.016 0.061a0.015 0.015 0 0 0 0.026 0.007 0.606 0.606 0 0 1 0.077-0.057c0.03-0.018 0.06-0.035 0.09-0.053 0.01-0.006 0.02-0.011 0.029-0.017 0.034-0.024 0.07-0.046 0.102-0.072A0.28 0.28 0 0 0 2.97 1.663l0.009-0.014c0.005-0.007 0.012-0.008 0.023-0.003l0.011 0.005A0.381 0.381 0 0 0 3.062 1.612a0.046 0.046 0 0 1 0.012-0.011 0.084 0.084 0 0 0 0.04-0.052L3.119 1.537a0.017 0.017 0 0 1 0.018-0.008l0.008 0.002a0.024 0.024 0 0 0 0.026-0.01c0.028-0.031 0.055-0.063 0.083-0.093A0.203 0.203 0 0 1 3.282 1.403a0.015 0.015 0 0 1 0.025 0.01l0.002 0.021a0.079 0.079 0 0 1-0.019 0.062 0.572 0.572 0 0 1-0.058 0.066c-0.015 0.012-0.025 0.03-0.041 0.042a0.106 0.106 0 0 1-0.042 0.025 0.038 0.038 0 0 0-0.026 0.025 0.157 0.157 0 0 0-0.012 0.032 0.509 0.509 0 0 1-0.031 0.099 0.743 0.743 0 0 1-0.048 0.111c-0.016 0.026-0.031 0.053-0.047 0.079-0.034 0.056-0.068 0.112-0.104 0.167-0.022 0.034-0.044 0.068-0.066 0.101a0.286 0.286 0 0 1-0.103 0.096l-0.049 0.024a0.031 0.031 0 0 1-0.036-0.003 0.027 0.027 0 0 1-0.01-0.033l0.001-0.012-0.009-0.006-0.012 0.004-0.004 0.006 0.004 0.012a0.203 0.203 0 0 1 0.029 0.082 0.081 0.081 0 0 1-0.002 0.029 0.015 0.015 0 0 1-0.011 0.011 0.018 0.018 0 0 1-0.018-0.005 0.05 0.05 0 0 1-0.012-0.035 0.041 0.041 0 0 0-0.003-0.02 0.155 0.155 0 0 1-0.012-0.057L2.564 2.328l-0.012 0.001a0.021 0.021 0 0 0-0.019 0.02 0.422 0.422 0 0 0 0.002 0.104 1.109 1.109 0 0 0 0.026 0.118 0.037 0.037 0 0 1 0.002 0.012c-0.002 0.047 0.011 0.094 0.006 0.142l-0.004 0.033a0.059 0.059 0 0 0 0.003 0.033l0.006 0.004 0.005-0.005 0.004-0.021c0.003-0.03 0.007-0.061 0.007-0.091a0.13 0.13 0 0 1 0.005-0.037 0.183 0.183 0 0 0 0.004-0.095 0.243 0.243 0 0 1 0.002-0.066l0.007-0.009a0.012 0.012 0 0 1 0.015 0.003l0.019 0.025a0.527 0.527 0 0 0-0.003 0.111c0.001 0.017-0.001 0.033-0.001 0.05l-0.002 0.013a0.326 0.326 0 0 0-0.018 0.111l-0.004 0.045-0.004 0.025a0.156 0.156 0 0 0-0.005 0.033 0.193 0.193 0 0 1-0.01 0.062c-0.011 0.04-0.012 0.083-0.021 0.123a0.048 0.048 0 0 0 0.001 0.017 0.026 0.026 0 0 1-0.006 0.019 0.131 0.131 0 0 1-0.016 0.019 0.07 0.07 0 0 1-0.018 0.011l-0.015 0.005c-0.023 0.01-0.024 0.009-0.029-0.015-0.001-0.006-0.003-0.011-0.009-0.013-0.015-0.004-0.03-0.007-0.044-0.01l-0.007 0.004-0.009 0.027a0.031 0.031 0 0 1-0.033 0.022l-0.029-0.003-0.006 0.01a0.606 0.606 0 0 0-0.008 0.134 0.077 0.077 0 0 0 0.003 0.02 0.882 0.882 0 0 1 0.018 0.124c0.002 0.014-0.002 0.028 0 0.042a0.278 0.278 0 0 1-0.005 0.07l-0.002 0.025a0.357 0.357 0 0 1-0.01 0.066c-0.01 0.051-0.027 0.1-0.042 0.149-0.004 0.013-0.01 0.026-0.015 0.039-0.005 0.014-0.01 0.029-0.016 0.043a0.145 0.145 0 0 0-0.009 0.045 0.232 0.232 0 0 1-0.021 0.094c0.005 0.017 0.011 0.034 0.017 0.051a0.06 0.06 0 0 0 0.025 0.033 0.056 0.056 0 0 1 0.016 0.013 0.251 0.251 0 0 0 0.046 0.048 0.041 0.041 0 0 1 0.008 0.014 0.015 0.015 0 0 1-0.013 0.021 0.047 0.047 0 0 1-0.012-0.001 0.017 0.017 0 0 0-0.018 0.007L2.31 4.208a0.013 0.013 0 0 1-0.018-0.004l-0.007-0.015a0.081 0.081 0 0 0-0.025-0.042 0.149 0.149 0 0 1-0.022-0.031L2.227 4.104l-0.011 0.001a0.058 0.058 0 0 0-0.01 0.032l0.005 0.01 0.019 0.016a0.043 0.043 0 0 1 0.009 0.053 0.014 0.014 0 0 1-0.014 0.007l-0.044-0.011-0.016-0.006a0.03 0.03 0 0 1-0.016-0.023c-0.002-0.017-0.003-0.033-0.006-0.05a0.238 0.238 0 0 1-0.001-0.062c0.003-0.036 0.009-0.072 0.014-0.108 0.003-0.021 0.009-0.041 0.013-0.061a0.054 0.054 0 0 1 0.02-0.031c0.009-0.008 0.028-0.007 0.026-0.023-0.001-0.012-0.017-0.012-0.025-0.019a0.021 0.021 0 0 1-0.009-0.017c0.001-0.021 0.002-0.042 0.004-0.063 0.005-0.046 0.006-0.092 0.015-0.137a0.707 0.707 0 0 0 0.005-0.15c0-0.018-0.001-0.036-0.002-0.054a0.189 0.189 0 0 0-0.011-0.066A0.078 0.078 0 0 1 2.188 3.285l0.002-0.016a1.063 1.063 0 0 0-0.004-0.172c-0.003-0.019-0.003-0.039-0.004-0.058a0.013 0.013 0 0 0-0.01-0.013c-0.013-0.004-0.027-0.008-0.04-0.01a0.028 0.028 0 0 0-0.029 0.012c-0.004 0.005-0.007 0.01-0.003 0.015a0.085 0.085 0 0 1 0.011 0.084 0.076 0.076 0 0 0 0 0.045 0.065 0.065 0 0 1-0.005 0.053 0.105 0.105 0 0 0-0.012 0.056 0.399 0.399 0 0 1-0.008 0.108 0.119 0.119 0 0 0-0.002 0.025c-0.001 0.043-0.003 0.086-0.001 0.13a0.178 0.178 0 0 0 0.008 0.058 0.492 0.492 0 0 1 0.006 0.108 0.154 0.154 0 0 0-0.001 0.021c0 0.022 0.001 0.045-0.001 0.066a0.956 0.956 0 0 0 0.001 0.122 0.179 0.179 0 0 0 0.019 0.08 0.175 0.175 0 0 1 0.01 0.024 0.035 0.035 0 0 1 0.001 0.024l-0.004 0.012a0.075 0.075 0 0 0 0.005 0.045 0.077 0.077 0 0 1-0.011 0.075 0.019 0.019 0 0 1-0.018 0.009l-0.02-0.003-0.04-0.012a0.017 0.017 0 0 1-0.013-0.023l0.009-0.019a0.021 0.021 0 0 0 0.002-0.016 0.067 0.067 0 0 1 0.009-0.052 0.116 0.116 0 0 0 0.012-0.057 0.038 0.038 0 0 0-0.007-0.023A0.233 0.233 0 0 1 2.016 3.899L2.01 3.879a0.057 0.057 0 0 1-0.006-0.02c0.003-0.029-0.008-0.058-0.004-0.087a0.058 0.058 0 0 0-0.004-0.021 0.193 0.193 0 0 1-0.013-0.069A0.024 0.024 0 0 0 1.98 3.67a0.163 0.163 0 0 1-0.011-0.049c-0.007-0.047-0.013-0.094-0.018-0.14A0.08 0.08 0 0 1 1.951 3.468a0.017 0.017 0 0 1 0.011-0.015l0.013-0.002a0.026 0.026 0 0 0 0.02-0.035 0.062 0.062 0 0 0-0.031-0.042 0.024 0.024 0 0 1-0.013-0.025l0.003-0.025a0.083 0.083 0 0 0 0-0.029 0.027 0.027 0 0 1 0.015-0.034L1.976 3.256c0.012-0.006 0.015-0.016 0.01-0.032a0.022 0.022 0 0 0-0.014-0.015c-0.01-0.004-0.021-0.006-0.031-0.011a0.022 0.022 0 0 1-0.013-0.027l0.002-0.008a0.024 0.024 0 0 0-0.012-0.024l-0.02-0.008a0.08 0.08 0 0 1-0.022-0.012c-0.011-0.011-0.026-0.016-0.038-0.025a0.21 0.21 0 0 0-0.039-0.024 0.049 0.049 0 0 1-0.028-0.044A0.045 0.045 0 0 0 1.75 2.988c-0.037-0.027-0.03-0.019-0.038-0.064a0.079 0.079 0 0 1 0.004-0.053c0.005-0.01 0.007-0.021 0.011-0.031a0.07 0.07 0 0 0 0.005-0.045l-0.007-0.033a0.508 0.508 0 0 1-0.017-0.128c0-0.026-0.002-0.053-0.003-0.079 0-0.025 0-0.05 0.001-0.076a0.218 0.218 0 0 0-0.001-0.037A0.14 0.14 0 0 1 1.714 2.368a1.126 1.126 0 0 0 0.04-0.154A0.376 0.376 0 0 0 1.758 2.156 0.02 0.02 0 0 0 1.755 2.144a0.288 0.288 0 0 0-0.028-0.036 0.067 0.067 0 0 1-0.018-0.027c-0.006-0.02-0.012-0.04-0.017-0.06a0.035 0.035 0 0 1 0.005-0.028 0.011 0.011 0 0 1 0.018-0.001c0.007 0.013 0.014 0.027 0.021 0.041a0.063 0.063 0 0 0 0.015 0.014l0.016 0 0.003-0.011c-0.003-0.046-0.007-0.092-0.01-0.138a0.053 0.053 0 0 1 0.002-0.025A0.25 0.25 0 0 0 1.773 1.812l0.004-0.029A0.193 0.193 0 0 1 1.811 1.694a0.081 0.081 0 0 0 0.012-0.035 0.231 0.231 0 0 1 0.037-0.097 0.037 0.037 0 0 1 0.016-0.013A0.149 0.149 0 0 1 1.903 1.54l0.037-0.008a0.03 0.03 0 0 0 0.026-0.019 0.08 0.08 0 0 1 0.024-0.033A0.058 0.058 0 0 1 2.009 1.472c0.005-0.002 0.012 0.006 0.011 0.009a0.075 0.075 0 0 1-0.021 0.041 0.127 0.127 0 0 0-0.031 0.038 0.054 0.054 0 0 1-0.036 0.027c-0.013 0.003-0.026 0.009-0.04 0.013a0.04 0.04 0 0 0-0.029 0.032c-0.006 0.024-0.012 0.049-0.019 0.073a0.1 0.1 0 0 1-0.013 0.035 0.236 0.236 0 0 0-0.027 0.065 0.084 0.084 0 0 0-0.002 0.024l-0.008 0.113a0.124 0.124 0 0 0 0 0.017c0.002 0.031 0.004 0.061 0.007 0.092a0.037 0.037 0 0 0 0.02 0.03c0.01 0.005 0.02 0.009 0.029 0.015a0.022 0.022 0 0 1 0.009 0.014 0.062 0.062 0 0 1-0.007 0.04Zm0.613-1.03l-0.028 0.002-0.007 0.004 0 0.003 0.002 0.004a0.043 0.043 0 0 0 0.032-0.013 0.025 0.025 0 0 0 0.02-0.012l-0.002-0.007-0.003 0Zm-0.159 0.418a0.038 0.038 0 0 0 0.013 0.025l0.004 0.001 0.003-0.006a0.027 0.027 0 0 0-0.021-0.019l0-0.012a0.025 0.025 0 0 0-0.014-0.024c-0.005-0.002-0.008-0.008-0.014-0.005-0.004 0.002-0.002 0.011 0.005 0.018Zm0.059 0.555a0.039 0.039 0 0 1-0.03-0.011c-0.009-0.009-0.017-0.018-0.026-0.027-0.007-0.008-0.013-0.018-0.019-0.027l-0.01-0.014c-0.005-0.007-0.011-0.01-0.012-0.005l0 0.011c0.006 0.011 0.013 0.021 0.021 0.031l0.008 0.01a0.1 0.1 0 0 1 0.025 0.055l0.006 0.003A0.096 0.096 0 0 0 2.352 2.111L2.361 2.103l0.004-0.007-0.003-0.008-0.003-0.001-0.004 0.005Zm0.029-0.338l0.002-0.027 0.003-0.012 0.006-0.006 0.01 0.005 0.004 0.007a0.368 0.368 0 0 1 0.003 0.096l-0.007 0.066a0.35 0.35 0 0 1-0.004 0.042 0.446 0.446 0 0 0-0.002 0.108l0.003 0.008a0.013 0.013 0 0 0 0.017 0.008l0.011-0.005c0.021-0.016 0.043-0.031 0.063-0.048 0.024-0.019 0.047-0.039 0.072-0.057A0.036 0.036 0 0 0 2.58 1.924a0.24 0.24 0 0 0-0.005-0.029c-0.002-0.011-0.006-0.021-0.008-0.032a0.03 0.03 0 0 0-0.014-0.024 0.036 0.036 0 0 1-0.019-0.026c-0.004-0.018-0.008-0.035-0.011-0.053a0.619 0.619 0 0 0-0.031-0.121 0.048 0.048 0 0 0-0.035-0.033 0.281 0.281 0 0 1-0.047-0.018c-0.014-0.006-0.029-0.01-0.043-0.015-0.009 0.012-0.007 0.025-0.011 0.036a0.063 0.063 0 0 0-0.004 0.021 0.198 0.198 0 0 0 0.003 0.029A0.018 0.018 0 0 0 2.37 1.672c0.011 0 0.022 0 0.033 0a0.049 0.049 0 0 1 0.04 0.02 0.122 0.122 0 0 1 0.024 0.087 0.866 0.866 0 0 0-0.005 0.15l0.001 0.025a0.057 0.057 0 0 1-0.009 0.031l-0.006 0.005-0.009-0.008-0.001-0.004A0.647 0.647 0 0 1 2.44 1.803a0.168 0.168 0 0 0-0.004-0.066 0.028 0.028 0 0 0-0.032-0.021l-0.033 0.003a0.015 0.015 0 0 0-0.012 0.012Zm-0.499 0.939a0.079 0.079 0 0 0 0.009 0.037A0.022 0.022 0 0 0 1.917 2.76a0.008 0.008 0 0 0 0.006-0.011 0.048 0.048 0 0 1-0.015-0.025 0.09 0.09 0 0 1 0.023-0.081 0.276 0.276 0 0 1 0.051-0.044 0.154 0.154 0 0 0 0.032-0.025 0.251 0.251 0 0 1 0.041-0.036c0.017-0.012 0.032-0.027 0.048-0.04A0.905 0.905 0 0 1 2.174 2.44a0.025 0.025 0 0 0 0.01-0.013 0.046 0.046 0 0 1 0.014-0.02l0.002-0.007-0.008-0.002a0.147 0.147 0 0 0-0.05 0.036 0.409 0.409 0 0 1-0.036 0.035 0.409 0.409 0 0 0-0.045 0.044 0.077 0.077 0 0 1-0.035 0.029c-0.023 0.02-0.052 0.033-0.069 0.06a0.03 0.03 0 0 1-0.012 0.01 0.142 0.142 0 0 0-0.04 0.036A0.087 0.087 0 0 0 1.883 2.713Zm0.168-1.101a0.213 0.213 0 0 1-0.019 0.028A0.084 0.084 0 0 0 2.01 1.688c-0.001 0.01-0.005 0.019-0.006 0.029-0.001 0.008-0.006 0.018 0.001 0.023 0.008 0.007 0.015-0.002 0.021-0.006L2.03 1.732a0.014 0.014 0 0 1 0.015 0.003l0.009 0.014a0.108 0.108 0 0 0 0.034 0.036l0.007-0.001 0.001-0.007A0.071 0.071 0 0 0 2.076 1.75a0.016 0.016 0 0 1 0.005-0.027A0.033 0.033 0 0 1 2.117 1.721l0.015 0.006 0.003-0.002L2.136 1.721a0.217 0.217 0 0 1-0.045-0.054C2.08 1.649 2.066 1.633 2.051 1.612Zm0.2 0.025l-0.007-0.015c-0.02-0.029-0.04-0.057-0.06-0.085l-0.003-0.004A0.423 0.423 0 0 1 2.112 1.462l-0.008-0.002c-0.005-0.001-0.013 0.006-0.015 0.012-0.002 0.005 0 0.013 0.005 0.015a0.043 0.043 0 0 1 0.028 0.033 0.128 0.128 0 0 0 0.025 0.043c0.014 0.017 0.025 0.036 0.038 0.055l0.033 0.048 0.007 0.003A0.028 0.028 0 0 0 2.251 1.637Zm-0.177-0.118l-0.012 0.034a0.039 0.039 0 0 0 0.007 0.038 1.028 1.028 0 0 0 0.075 0.084l0.012 0.012 0.007 0.001 0.008-0.009L2.17 1.667l-0.008-0.015c-0.014-0.02-0.029-0.04-0.043-0.061C2.104 1.568 2.09 1.545 2.074 1.519Zm0.009 0.608A0.078 0.078 0 0 0 2.076 2.109a0.22 0.22 0 0 0-0.04-0.047 0.589 0.589 0 0 0-0.047-0.064A0.072 0.072 0 0 0 1.971 1.982l-0.007 0.002-0.003 0.007 0.003 0.007A0.05 0.05 0 0 1 1.987 2.036a0.098 0.098 0 0 0 0.034 0.06l0.036 0.034 0.011 0.007L2.079 2.135Zm-0.109-0.221l0 0.008 0.002 0.008 0.005 0.011c0.003 0.004 0.008 0 0.012 0l0.011 0.003a0.08 0.08 0 0 1 0.012 0.022 0.616 0.616 0 0 0 0.043 0.076 0.045 0.045 0 0 0 0.015 0.014 0.026 0.026 0 0 0 0.024 0.002 0.01 0.01 0 0 0 0.005-0.013 0.229 0.229 0 0 0-0.033-0.043 0.401 0.401 0 0 1-0.046-0.054 0.45 0.45 0 0 0-0.042-0.046H1.979l-0.003 0.003ZM2.235 2.378L2.247 2.377a0.372 0.372 0 0 0 0.087-0.026 0.058 0.058 0 0 1 0.036-0.007l0.008-0.001a0.017 0.017 0 0 0 0.011-0.026 0.031 0.031 0 0 0-0.012-0.011 0.036 0.036 0 0 0-0.05 0.015 0.046 0.046 0 0 1-0.035 0.025 0.427 0.427 0 0 0-0.049 0.011A0.035 0.035 0 0 0 2.23 2.366l-0.002 0.008Zm-0.24 0.437A0.158 0.158 0 0 0 2.059 2.797a0.571 0.571 0 0 0 0.093-0.062A0.045 0.045 0 0 0 2.161 2.717l-0.007-0.009-0.011 0.002a0.325 0.325 0 0 0-0.028 0.026 0.311 0.311 0 0 1-0.078 0.054 0.067 0.067 0 0 1-0.048 0.007c-0.013-0.003-0.026-0.008-0.04-0.012L1.943 2.788l0.001 0.004A0.073 0.073 0 0 0 1.995 2.815Zm0.207-1.312L2.197 1.509l0.001 0.008c0.014 0.019 0.028 0.038 0.044 0.056a0.129 0.129 0 0 1 0.02 0.026 0.213 0.213 0 0 0 0.045 0.059l0.007 0 0.003-0.007L2.312 1.64a0.343 0.343 0 0 1-0.023-0.035 0.205 0.205 0 0 0-0.034-0.047 0.22 0.22 0 0 1-0.039-0.048l-0.01-0.007Zm-0.022 0.657a0.25 0.25 0 0 0-0.027-0.05L2.141 2.099 2.133 2.098l-0.005 0.006 0 0.004a0.117 0.117 0 0 0 0.034 0.055c0.002 0.002 0.008 0.002 0.012 0.003Zm-0.27-0.206l0.001 0c0 0.01-0.001 0.019 0.001 0.029l0.006 0.009c0.002 0.002 0.008-0.002 0.009-0.006a0.128 0.128 0 0 0 0.007-0.053 0.035 0.035 0 0 0-0.008-0.014l-0.007-0.003L1.913 1.921Zm0.268-0.599L2.198 1.353l0.003-0.002-0.002-0.008L2.19 1.336c-0.016-0.005-0.031-0.01-0.048-0.014l-0.01 0.005 0.001 0.011a0.026 0.026 0 0 0 0.012 0.01C2.157 1.352 2.169 1.354 2.178 1.355Zm0.378-0.248L2.556 1.097l-0.007 0.002a0.172 0.172 0 0 1-0.056 0.055c-0.004 0.002-0.006 0.009-0.008 0.014-0.001 0.004 0.011 0.004 0.019 0a0.062 0.062 0 0 0 0.026-0.021C2.539 1.133 2.549 1.12 2.556 1.107ZM1.937 2.133l0.008-0.001a0.029 0.029 0 0 0 0.009-0.023c-0.001-0.014-0.002-0.027-0.004-0.04l-0.006-0.01c-0.003-0.003-0.009 0.002-0.011 0.009a0.099 0.099 0 0 0-0.002 0.025C1.932 2.106 1.935 2.12 1.937 2.133Zm0.235-0.246a0.009 0.009 0 0 0-0.008 0.012 0.134 0.134 0 0 0 0.036 0.045l0.003 0.002 0.008-0.003 0.002-0.007q-0.016-0.024-0.033-0.047Zm0.14-0.138a0.093 0.093 0 0 0-0.007-0.022 0.456 0.456 0 0 0-0.029-0.039l-0.011-0.005-0.002 0.011A0.167 0.167 0 0 0 2.312 1.749ZM2.28 1.934l-0.001-0.004a0.114 0.114 0 0 0-0.026-0.037L2.242 1.889l-0.007 0.003L2.234 1.896a0.102 0.102 0 0 0 0.037 0.043l0.007-0.002Zm0.466 0.174a0.338 0.338 0 0 0 0.032-0.018 0.241 0.241 0 0 0 0.024-0.022c0.004-0.004 0.005-0.01 0.002-0.01l-0.008 0.001c-0.013 0.01-0.026 0.02-0.038 0.03C2.753 2.093 2.746 2.096 2.746 2.108Zm-0.459 0.039l-0.002-0.003a0.017 0.017 0 0 0-0.022-0.003 0.015 0.015 0 0 0-0.008 0.017c0.001 0.004 0.005 0.008 0.008 0.006l0.022-0.01Zm-0.44 0.845l-0.009-0.027-0.011-0.001a0.017 0.017 0 0 0-0.003 0.02A0.022 0.022 0 0 0 1.842 2.998ZM2.332 1.94l-0.021-0.029-0.004 0L2.306 1.915C2.313 1.932 2.313 1.932 2.332 1.94ZM2.269 3.284l-0.001-0.011L2.264 3.267c-0.002-0.002-0.008 0.002-0.009 0.006a0.023 0.023 0 0 0 0.002 0.02l0.006 0.005 0.005-0.005Zm-0.228-1.025a0.022 0.022 0 0 0-0.024 0.004L2.014 2.27c0 0.004 0.006 0.005 0.01 0.002Zm0.324-0.273a0.014 0.014 0 0 0-0.009-0.014c-0.004-0.001-0.009 0.003-0.008 0.007l0.005 0.011 0.006 0.004Zm-0.08 0.332c-0.01-0.009-0.02-0.005-0.029-0.007l-0.003 0.002 0.005 0.005C2.266 2.319 2.274 2.318 2.285 2.318Zm0.6-0.428l0.007-0.002 0.004-0.006-0.007-0.001-0.006 0.004-0.001 0.003Zm-0.609 0.319l-0.005 0.008 0.004 0.006 0.006-0.003ZM2.199 4.015l-0.006-0.004-0.004 0.006 0.004 0.006L2.196 4.022Zm0.141-2.767l-0.005-0.004-0.003 0.002 0.003 0.006Zm0.371 1.026l-0.007 0.003 0 0.006L2.708 2.283l0.005-0.006Zm-0.476-0.281l-0.003 0-0.001 0.004 0.006 0.005 0.002-0.003Zm0.139-0.167l0.004 0.004 0.003-0.003L2.376 1.823Z" fill="#000000" data-fill-palette-color="accent"></path><path d="M2.273 2.794l-0.027-0.036a0.046 0.046 0 0 1-0.011-0.035 0.053 0.053 0 0 0-0.012-0.038c-0.021-0.03-0.021-0.031-0.005-0.063l0.006-0.014a0.176 0.176 0 0 1-0.008-0.043c0-0.005-0.004-0.01-0.006-0.014l-0.007-0.011a0.015 0.015 0 0 1 0.002-0.015 0.015 0.015 0 0 1 0.019-0.002l0.007 0.004c0.01 0.01 0.02 0.02 0.029 0.031a0.034 0.034 0 0 1 0.01 0.026 0.052 0.052 0 0 0 0.012 0.039 0.029 0.029 0 0 1 0.003 0.031c-0.004 0.008 0.001 0.013 0.007 0.018a0.137 0.137 0 0 1 0.022 0.019 0.051 0.051 0 0 1 0.009 0.018 0.015 0.015 0 0 1-0.005 0.016 0.018 0.018 0 0 1-0.019 0.002c-0.01-0.004-0.014-0.014-0.021-0.02l-0.004-0.001-0.002 0.007c0.005 0.011 0.011 0.022 0.017 0.033a0.076 0.076 0 0 1 0.01 0.056 0.327 0.327 0 0 0-0.005 0.079 0.063 0.063 0 0 1-0.006 0.036l-0.014 0.002-0.008-0.01a0.115 0.115 0 0 1-0.005-0.061C2.264 2.83 2.269 2.813 2.273 2.794Z" fill="#000000" data-fill-palette-color="accent"></path><path d="M2.055 1.066l-0.002 0.021a0.013 0.013 0 0 1-0.019 0.008c-0.012-0.009-0.024-0.019-0.036-0.027-0.017-0.012-0.022-0.029-0.003-0.044l0.012-0.012c0.004-0.003 0.01-0.008 0.014-0.007C2.035 1.006 2.045 0.996 2.057 0.996A0.196 0.196 0 0 0 2.09 0.99 0.063 0.063 0 0 1 2.122 0.989c0.009 0.003 0.016-0.002 0.023-0.006a0.013 0.013 0 0 1 0.02 0.009 0.026 0.026 0 0 1-0.007 0.03l-0.03 0.023-0.011 0.004A0.102 0.102 0 0 0 2.055 1.066Z" fill="#000000" data-fill-palette-color="accent"></path><path d="M2.021 4.007l-0.002 0.014a0.215 0.215 0 0 1-0.024 0.054 0.064 0.064 0 0 1-0.016 0.019 0.94 0.94 0 0 0-0.076 0.058c-0.003 0.003-0.011 0.001-0.015-0.004A0.022 0.022 0 0 1 1.886 4.125 0.136 0.136 0 0 1 1.935 4.069l0.008-0.004a0.103 0.103 0 0 0 0.049-0.055l0.009-0.014 0.011-0.004 0.008 0.009Z" fill="#000000" data-fill-palette-color="accent"></path><path d="M2.363 4.293a0.371 0.371 0 0 1-0.135-0.022l-0.01-0.007 0.002-0.015a0.072 0.072 0 0 1 0.039-0.011 0.074 0.074 0 0 1 0.016 0.001 0.295 0.295 0 0 0 0.083 0.005c0.006 0 0.011 0 0.017 0a0.013 0.013 0 0 1 0.01 0.015l-0.002 0.008A0.052 0.052 0 0 1 2.363 4.293Z" fill="#000000" data-fill-palette-color="accent"></path><path d="M1.967 4.23L1.951 4.229A0.095 0.095 0 0 0 1.89 4.234l-0.012 0.002a0.016 0.016 0 0 1-0.016-0.015l0.004-0.025a0.026 0.026 0 0 1 0.025-0.023 0.183 0.183 0 0 1 0.029 0.002c0.022 0.003 0.042 0.013 0.064 0.016 0.011 0.001 0.015 0.017 0.008 0.026a0.026 0.026 0 0 1-0.016 0.012A0.044 0.044 0 0 1 1.967 4.23Z" fill="#000000" data-fill-palette-color="accent"></path></svg></g></svg></g></svg></g><defs></defs></svg><rect width="291.8941325888189" height="200" fill="none" stroke="none" visibility="hidden"></rect></g></svg></g></svg>